# Blender 3.6.2
# www.blender.org
mtllib skeleton.mtl
o Sub-Model_0
v 0.019000 1.496001 0.202000
v 0.057000 1.501001 0.159000
v 0.097000 1.584001 0.051000
v 0.022000 1.545001 0.202000
v 0.065000 1.558001 0.159000
v 0.019000 1.463001 0.192000
v -0.019000 1.496001 0.202000
v 0.097000 1.584001 0.159000
v 0.097000 1.610001 0.029000
v 0.032000 1.532001 0.051000
v 0.052000 1.468001 0.145000
v -0.019000 1.463001 0.192000
v 0.000000 1.567001 0.183000
v 0.054000 1.584001 0.202000
v 0.063000 1.608001 0.192000
v 0.086000 1.610001 0.202000
v 0.032000 1.700001 0.180000
v 0.097000 1.649001 0.180000
v 0.097000 1.674001 0.115000
v 0.032000 1.726001 0.115000
v 0.032000 1.610001 -0.014000
v -0.022000 1.545001 0.202000
v -0.022000 1.610001 0.202000
v -0.065000 1.636001 0.202000
v -0.057000 1.501001 0.159000
v -0.052000 1.468001 0.145000
v -0.039000 1.568001 0.184000
v 0.042000 1.608001 0.192000
v 0.022000 1.610001 0.202000
v -0.032000 1.700001 0.180000
v 0.032000 1.713001 0.029000
v -0.065000 1.558001 0.159000
v 0.045000 1.617001 0.192000
v 0.065000 1.636001 0.202000
v 0.039000 1.568001 0.184000
v 0.000000 1.584001 0.223000
v 0.097000 1.661001 0.051000
v 0.056000 1.617001 0.192000
v 0.052000 1.600001 0.192000
v -0.052000 1.600001 0.192000
v -0.042000 1.608001 0.192000
v -0.054000 1.584001 0.202000
v -0.045000 1.617001 0.192000
v -0.056000 1.617001 0.192000
v -0.063000 1.608001 0.192000
v -0.086000 1.610001 0.202000
v -0.097000 1.649001 0.180000
v -0.097000 1.584001 0.159000
v -0.032000 1.726001 0.115000
v -0.097000 1.674001 0.115000
v -0.097000 1.661001 0.051000
v -0.032000 1.713001 0.029000
v -0.097000 1.610001 0.029000
v -0.032000 1.532001 0.051000
v -0.032000 1.610001 -0.014000
v -0.097000 1.584001 0.051000
v -0.147000 0.497000 -0.077000
v -0.147000 0.497000 -0.030000
v -0.186000 0.504000 -0.053000
v -0.135000 0.519000 -0.089000
v -0.135000 0.519000 -0.018000
v -0.138000 0.543000 -0.030000
v -0.193000 0.529000 -0.053000
v -0.177000 0.550000 -0.053000
v -0.079000 0.882001 -0.030000
v -0.138000 0.543000 -0.077000
v -0.079000 0.882001 -0.077000
v -0.067000 0.904001 -0.089000
v -0.118000 0.889001 -0.053000
v -0.125000 0.914001 -0.053000
v -0.074000 0.929001 -0.071000
v -0.067000 0.904001 -0.018000
v -0.074000 0.929001 -0.036000
v -0.104000 0.934001 -0.053000
v -0.067000 0.054000 -0.296000
v -0.062000 0.069000 -0.273000
v -0.108000 0.060000 -0.316000
v -0.068000 0.106000 -0.334000
v -0.071000 0.079000 -0.336000
v -0.123000 0.077000 -0.304000
v -0.074000 0.094000 -0.271000
v -0.115000 0.099000 -0.291000
v -0.078000 0.118000 -0.311000
v -0.136000 0.446000 -0.107000
v -0.173000 0.427000 -0.087000
v -0.188000 0.445000 -0.074000
v -0.132000 0.422000 -0.067000
v -0.133000 0.474000 -0.105000
v -0.143000 0.486000 -0.082000
v -0.127000 0.437000 -0.044000
v -0.180000 0.467000 -0.062000
v -0.139000 0.462000 -0.042000
v -0.149000 0.001000 -0.255000
v -0.189000 0.000000 -0.143000
v -0.138000 0.025000 -0.249000
v -0.127000 0.001000 -0.244000
v -0.127000 0.001000 -0.246000
v -0.156000 0.000000 -0.130000
v -0.105000 0.001000 -0.237000
v -0.116000 0.025000 -0.241000
v -0.060000 0.001000 -0.222000
v -0.083000 0.001000 -0.228000
v -0.100000 0.000000 -0.111000
v -0.071000 0.025000 -0.225000
v -0.094000 0.025000 -0.233000
v -0.134000 0.000000 -0.122000
v -0.082000 0.001000 -0.229000
v -0.012000 0.002000 -0.340000
v -0.091000 0.049000 -0.358000
v -0.067000 0.001000 -0.229000
v -0.038000 0.049000 -0.339000
v -0.110000 0.002000 -0.375000
v -0.139000 0.001000 -0.255000
v -0.078000 0.030000 -0.242000
v -0.122000 0.030000 -0.259000
v 0.136000 0.543000 0.136000
v 0.180000 0.555000 0.142000
v 0.150000 0.567000 0.175000
v 0.121000 0.558000 0.118000
v 0.128000 0.584000 0.114000
v 0.142000 0.593000 0.176000
v 0.187000 0.575000 0.127000
v 0.172000 0.596000 0.120000
v 0.142000 0.608000 0.152000
v 0.069000 0.882001 -0.048000
v 0.113000 0.893001 -0.042000
v 0.054000 0.896001 -0.066000
v 0.083000 0.905001 -0.009000
v 0.075000 0.932001 -0.008000
v 0.066000 0.926001 -0.066000
v 0.120000 0.914001 -0.057000
v 0.077000 0.943001 -0.037000
v 0.100000 0.934001 -0.062000
v 0.165000 0.055000 0.217000
v 0.153000 0.076000 0.205000
v 0.163000 0.102000 0.209000
v 0.210000 0.059000 0.225000
v 0.177000 0.089000 0.271000
v 0.181000 0.063000 0.261000
v 0.220000 0.083000 0.217000
v 0.179000 0.110000 0.253000
v 0.208000 0.106000 0.218000
v 0.184000 0.491000 0.154000
v 0.139000 0.487000 0.145000
v 0.127000 0.508000 0.133000
v 0.155000 0.495000 0.189000
v 0.137000 0.533000 0.138000
v 0.150000 0.520000 0.199000
v 0.153000 0.541000 0.182000
v 0.194000 0.514000 0.146000
v 0.182000 0.537000 0.146000
v 0.193000 0.000000 0.315000
v 0.170000 0.000000 0.321000
v 0.181000 0.024000 0.318000
v 0.210000 0.000000 0.433000
v 0.192000 0.000000 0.314000
v 0.203000 0.024000 0.310000
v 0.244000 0.000000 0.421000
v 0.215000 0.000000 0.306000
v 0.237000 0.000000 0.299000
v 0.299000 0.000000 0.400000
v 0.259000 0.000000 0.288000
v 0.248000 0.024000 0.294000
v 0.226000 0.024000 0.302000
v 0.266000 0.000000 0.413000
v 0.237000 0.000000 0.298000
v 0.220000 0.000000 0.168000
v 0.147000 0.047000 0.204000
v 0.249000 0.000000 0.288000
v 0.187000 0.028000 0.301000
v 0.201000 0.047000 0.185000
v 0.122000 0.000000 0.203000
v 0.232000 0.028000 0.284000
v 0.177000 0.000000 0.314000
v 0.213000 1.142001 0.172000
v 0.201000 1.156001 0.185000
v 0.272000 1.148001 0.138000
v 0.261000 1.159001 0.136000
v 0.213000 1.131001 0.109000
v 0.261000 1.136001 0.141000
v 0.201000 1.139001 0.092000
v 0.213000 1.165001 0.168000
v 0.213000 1.410001 0.060000
v 0.213000 1.154001 0.105000
v 0.213000 1.421001 0.122000
v 0.261000 1.416001 0.091000
v 0.272000 1.439001 0.087000
v 0.201000 1.447001 0.134000
v 0.213000 1.467001 0.106000
v 0.201000 1.431001 0.040000
v 0.249000 1.463001 0.083000
v 0.213000 1.458001 0.060000
v 0.092000 1.288001 0.587000
v 0.148000 1.251001 0.624000
v 0.101000 1.278001 0.606000
v 0.101000 1.219001 0.627000
v 0.162000 1.248001 0.615000
v 0.092000 1.199001 0.620000
v 0.133000 1.204001 0.587000
v 0.199000 1.077001 0.236000
v 0.133000 1.264001 0.566000
v 0.199000 1.136001 0.215000
v 0.179000 1.237001 0.584000
v 0.245000 1.109001 0.233000
v 0.191000 1.053001 0.218000
v 0.191000 1.142001 0.186000
v 0.205000 1.124001 0.182000
v 0.251000 1.097001 0.201000
v 0.261000 1.102001 0.213000
v 0.205000 1.065001 0.204000
v 0.120000 1.305001 0.702000
v 0.108000 1.260001 0.716000
v 0.120000 1.260001 0.718000
v 0.103000 1.236001 0.685000
v 0.108000 1.304001 0.700000
v 0.138000 1.238001 0.691000
v 0.138000 1.305001 0.667000
v 0.134000 1.232001 0.641000
v 0.134000 1.277001 0.625000
v 0.111000 1.231001 0.637000
v 0.111000 1.275001 0.621000
v 0.103000 1.303001 0.661000
v 0.079000 1.303001 0.661000
v 0.076000 1.301001 0.674000
v 0.102000 1.304001 0.665000
v 0.100000 1.302001 0.678000
v 0.100000 1.313001 0.674000
v 0.076000 1.312001 0.670000
v 0.093000 1.314001 0.727000
v 0.093000 1.269001 0.743000
v 0.092000 1.264001 0.728000
v 0.062000 1.262001 0.722000
v 0.092000 1.309001 0.712000
v 0.062000 1.306001 0.706000
v 0.081000 1.261001 0.720000
v 0.090000 1.302001 0.695000
v 0.081000 1.306001 0.704000
v 0.081000 1.299001 0.687000
v 0.081000 1.255001 0.703000
v 0.117000 1.262001 0.722000
v 0.090000 1.258001 0.711000
v 0.117000 1.306001 0.705000
v 0.119000 1.240001 0.558000
v 0.104000 1.141001 0.322000
v 0.096000 1.228001 0.561000
v 0.127000 1.155001 0.324000
v 0.119000 1.218001 0.566000
v 0.127000 1.132001 0.332000
v 0.159000 1.106001 0.226000
v 0.180000 1.099001 0.240000
v 0.180000 1.121001 0.232000
v -0.261000 1.136001 0.141000
v -0.213000 1.131001 0.109000
v -0.272000 1.148001 0.138000
v -0.213000 1.154001 0.105000
v -0.213000 1.142001 0.172000
v -0.201000 1.156001 0.185000
v -0.201000 1.139001 0.092000
v -0.213000 1.165001 0.168000
v -0.261000 1.159001 0.136000
v -0.261000 1.416001 0.091000
v -0.213000 1.421001 0.122000
v -0.213000 1.410001 0.060000
v -0.272000 1.439001 0.087000
v -0.201000 1.447001 0.134000
v -0.201000 1.431001 0.040000
v -0.213000 1.458001 0.060000
v -0.249000 1.463001 0.083000
v -0.213000 1.467001 0.106000
v -0.189000 1.137001 0.662000
v -0.189000 1.199001 0.651000
v -0.178000 1.120001 0.653000
v -0.249000 1.166001 0.645000
v -0.237000 1.168001 0.657000
v -0.213000 1.191001 0.605000
v -0.178000 1.213001 0.637000
v -0.213000 1.129001 0.616000
v -0.261000 1.160001 0.610000
v -0.213000 1.063001 0.242000
v -0.213000 1.125001 0.231000
v -0.261000 1.094001 0.237000
v -0.201000 1.137001 0.205000
v -0.201000 1.043001 0.222000
v -0.272000 1.090001 0.214000
v -0.213000 1.119001 0.196000
v -0.261000 1.088001 0.202000
v -0.213000 1.057001 0.207000
v -0.213000 1.179001 0.762001
v -0.213000 1.133001 0.754000
v -0.201000 1.197001 0.729000
v -0.201000 1.127001 0.717000
v -0.201000 1.194001 0.681000
v -0.225000 1.133001 0.754000
v -0.225000 1.194001 0.681000
v -0.225000 1.179001 0.762001
v -0.237000 1.197001 0.729000
v -0.225000 1.147001 0.673000
v -0.237000 1.127001 0.717000
v -0.201000 1.147001 0.673000
v -0.196000 1.004001 0.731000
v -0.207000 1.008001 0.709000
v -0.187000 1.037001 0.753000
v -0.174000 1.039001 0.740000
v -0.187000 1.048001 0.755000
v -0.190000 1.007001 0.714000
v -0.215000 1.048001 0.755000
v -0.215000 1.037001 0.753000
v -0.212000 1.005001 0.725000
v -0.207000 1.004001 0.731000
v -0.229000 1.051001 0.742000
v -0.210000 1.062001 0.748000
v -0.174000 1.051001 0.742000
v -0.192000 1.062001 0.748000
v -0.174000 1.044001 0.712000
v -0.219000 1.063001 0.739000
v -0.187000 1.058001 0.701000
v -0.212000 1.007001 0.714000
v -0.229000 1.044001 0.712000
v -0.229000 1.039001 0.740000
v -0.210000 1.178001 0.768000
v -0.174000 1.055001 0.714000
v -0.184000 1.063001 0.739000
v -0.187000 1.046001 0.699000
v -0.215000 1.046001 0.699000
v -0.229000 1.055001 0.714000
v -0.210000 1.068001 0.713000
v -0.219000 1.066001 0.721000
v -0.219000 1.183001 0.742000
v -0.219000 1.180001 0.759000
v -0.192000 1.178001 0.768000
v -0.189000 1.201001 0.778000
v -0.184000 1.066001 0.721000
v -0.215000 1.058001 0.701000
v -0.210000 1.184001 0.733000
v -0.192000 1.068001 0.713000
v -0.213000 1.209001 0.732000
v -0.192000 1.184001 0.733000
v -0.213000 1.201001 0.778000
v -0.178000 1.203001 0.766001
v -0.184000 1.180001 0.759000
v -0.178000 1.207001 0.743000
v -0.184000 1.183001 0.742000
v -0.231000 1.253001 0.751000
v -0.225000 1.203001 0.766001
v -0.231000 1.249001 0.775001
v -0.225000 1.207001 0.743000
v -0.201000 1.221001 0.866001
v -0.215000 1.261001 0.777000
v -0.207000 1.233001 0.868001
v -0.195000 1.233001 0.868001
v -0.201000 1.258001 0.656000
v -0.215000 1.751001 0.863001
v -0.215000 1.265001 0.753000
v -0.201000 1.255001 0.812001
v -0.172000 1.249001 0.775001
v -0.189000 1.209001 0.732000
v -0.195000 1.270001 0.658000
v -0.215000 1.755001 0.840001
v -0.219000 1.788001 0.858001
v -0.188000 1.261001 0.777000
v -0.188000 1.751001 0.863001
v -0.207000 1.270001 0.658000
v -0.201000 1.271001 0.718000
v -0.172000 1.253001 0.751000
v -0.201000 1.916001 0.880001
v -0.201000 1.780001 0.904001
v -0.188000 1.265001 0.753000
v -0.201000 1.796001 0.811001
v -0.188000 1.755001 0.840001
v -0.184000 1.788001 0.858001
v -0.190000 1.005001 0.725000
v -0.196000 1.008001 0.709000
v -0.223000 1.179001 0.767000
v -0.199000 1.177001 0.778000
v -0.169000 1.177001 0.777000
v -0.169000 1.130001 0.769000
v -0.187000 1.131001 0.763000
v -0.184000 1.134001 0.745000
v -0.184000 1.181001 0.753000
v -0.195000 1.180001 0.760000
v -0.203000 1.174001 0.793001
v -0.213000 1.179001 0.763000
v -0.187000 1.178001 0.771001
v -0.223000 1.132001 0.758000
v -0.213000 1.133001 0.755000
v -0.199000 1.130001 0.770000
v -0.203000 1.127001 0.785001
v -0.195000 1.133001 0.752000
v -0.138000 1.115001 0.352000
v -0.197000 1.146001 0.599000
v -0.174000 1.158001 0.601000
v -0.197000 1.169001 0.595000
v -0.162000 1.103001 0.356000
v -0.162000 1.127001 0.352000
v -0.174000 1.095001 0.244000
v -0.197000 1.108001 0.249000
v -0.197000 1.085001 0.253000
v 0.000000 0.989001 -0.111000
v 0.000000 1.171001 -0.118000
v 0.021000 1.165001 -0.076000
v -0.021000 1.165001 -0.076000
v 0.021000 0.991001 -0.070000
v -0.021000 0.991001 -0.070000
v 0.021000 1.416001 0.007000
v 0.021000 1.538001 0.091000
v 0.000000 1.562001 0.056000
v 0.000000 1.434001 -0.031000
v -0.021000 1.416001 0.007000
v -0.021000 1.538001 0.091000
v -0.047000 1.305001 0.207000
v -0.040000 1.328001 0.202000
v -0.040000 1.289001 0.189000
v -0.114000 1.352001 0.129000
v -0.114000 1.313001 0.116000
v -0.125000 1.331001 0.129000
v -0.099000 1.347001 0.014000
v -0.010000 1.397001 -0.005000
v -0.010000 1.358001 -0.018000
v -0.012000 1.382001 -0.025000
v -0.108000 1.370001 0.010000
v -0.099000 1.386001 0.027000
v 0.040000 1.328001 0.202000
v 0.125000 1.331001 0.129000
v 0.047000 1.305001 0.207000
v 0.040000 1.289001 0.189000
v 0.114000 1.352001 0.129000
v 0.114000 1.313001 0.116000
v 0.099000 1.386001 0.027000
v 0.108000 1.370001 0.010000
v 0.010000 1.397001 -0.005000
v 0.013000 1.382001 -0.025000
v 0.010000 1.358001 -0.018000
v 0.099000 1.347001 0.014000
v -0.056000 1.238001 0.209000
v -0.048000 1.262001 0.204000
v -0.048000 1.223001 0.191000
v -0.137000 1.289001 0.124000
v -0.118000 1.287001 -0.002000
v -0.151000 1.267001 0.124000
v -0.137000 1.249001 0.111000
v -0.118000 1.326001 0.011000
v -0.012000 1.338001 -0.024000
v -0.129000 1.310001 -0.007000
v -0.012000 1.299001 -0.038000
v -0.015000 1.323001 -0.046000
v 0.049000 1.223001 0.191000
v 0.056000 1.238001 0.209000
v 0.151000 1.267001 0.124000
v 0.049000 1.262001 0.204000
v 0.137000 1.249001 0.111000
v 0.137000 1.289001 0.124000
v 0.012000 1.338001 -0.024000
v 0.129000 1.310001 -0.007000
v 0.015000 1.323001 -0.046000
v 0.118000 1.287001 -0.002000
v 0.118000 1.326001 0.011000
v 0.012000 1.299001 -0.038000
v -0.067000 1.171001 0.214000
v -0.058000 1.156001 0.195000
v -0.181000 1.203001 0.120000
v -0.164000 1.186001 0.106000
v -0.058000 1.195001 0.208000
v -0.142000 1.227001 -0.017000
v -0.164000 1.225001 0.120000
v -0.014000 1.279001 -0.044000
v -0.155000 1.251001 -0.024000
v -0.014000 1.240001 -0.057000
v -0.142000 1.266001 -0.004000
v -0.018000 1.265001 -0.066000
v 0.067000 1.171001 0.214000
v 0.181000 1.203001 0.120000
v 0.058000 1.195001 0.208000
v 0.164000 1.186001 0.106000
v 0.058000 1.156001 0.195000
v 0.164000 1.225001 0.120000
v 0.142000 1.266001 -0.004000
v 0.155000 1.251001 -0.024000
v 0.018000 1.265001 -0.066000
v 0.014000 1.279001 -0.044000
v 0.142000 1.227001 -0.017000
v 0.014000 1.240001 -0.057000
v -0.058000 1.137001 0.188000
v -0.058000 1.097001 0.175000
v -0.067000 1.113001 0.195000
v -0.164000 1.127001 0.087000
v -0.164000 1.166001 0.100000
v -0.181000 1.144001 0.100000
v -0.142000 1.168001 -0.037000
v -0.142000 1.207001 -0.024000
v -0.014000 1.220001 -0.063000
v -0.155000 1.192001 -0.044000
v -0.014000 1.181001 -0.076000
v -0.018000 1.206001 -0.086000
v 0.164000 1.127001 0.087000
v 0.058000 1.097001 0.175000
v 0.067000 1.113001 0.195000
v 0.164000 1.166001 0.100000
v 0.181000 1.144001 0.100000
v 0.058000 1.137001 0.188000
v 0.014000 1.220001 -0.063000
v 0.018000 1.206001 -0.086000
v 0.155000 1.192001 -0.044000
v 0.142000 1.207001 -0.024000
v 0.142000 1.168001 -0.037000
v 0.014000 1.181001 -0.076000
v -0.061000 1.063001 0.148000
v -0.148000 1.074001 0.050000
v -0.052000 1.047001 0.129000
v -0.128000 1.111001 -0.062000
v -0.163000 1.091001 0.063000
v -0.052000 1.087001 0.142000
v -0.148000 1.113001 0.063000
v -0.128000 1.150001 -0.049000
v -0.140000 1.134001 -0.067000
v -0.012000 1.162001 -0.084000
v -0.016000 1.147001 -0.105000
v -0.012000 1.122001 -0.097000
v 0.052000 1.047001 0.129000
v 0.061000 1.063001 0.148000
v 0.052000 1.087001 0.142000
v 0.163000 1.091001 0.063000
v 0.148000 1.113001 0.063000
v 0.128000 1.111001 -0.062000
v 0.148000 1.074001 0.050000
v 0.140000 1.134001 -0.067000
v 0.012000 1.162001 -0.084000
v 0.016000 1.147001 -0.105000
v 0.128000 1.150001 -0.049000
v 0.012000 1.122001 -0.097000
v 0.083000 0.964001 -0.041000
v 0.083000 1.036001 -0.105000
v 0.021000 0.953001 -0.124000
v 0.021000 0.995001 -0.111000
v 0.083000 0.995001 -0.124000
v 0.145000 0.943001 -0.035000
v 0.124000 0.983001 -0.029000
v 0.000000 0.912001 0.010000
v 0.083000 0.922001 -0.041000
v -0.124000 0.983001 -0.029000
v 0.000000 0.846001 0.055000
v 0.000000 0.887001 0.061000
v 0.000000 0.860001 0.010000
v -0.083000 0.964001 -0.041000
v -0.083000 1.036001 -0.105000
v -0.145000 0.943001 -0.035000
v -0.021000 0.953001 -0.124000
v -0.083000 0.922001 -0.041000
v -0.083000 0.995001 -0.124000
v -0.021000 0.995001 -0.111000
v -0.165000 1.411001 0.008000
v -0.190000 1.428001 0.009000
v -0.203000 1.407001 0.025000
v -0.182000 1.434001 0.078000
v -0.167000 1.456001 0.066000
v -0.147000 1.435001 0.054000
v -0.071000 1.411001 0.126000
v -0.079000 1.428001 0.149000
v -0.097000 1.407001 0.158000
v 0.000000 1.368001 0.195000
v 0.079000 1.428001 0.149000
v 0.000000 1.355001 0.171000
v 0.000000 1.349001 0.205000
v 0.097000 1.407001 0.158000
v 0.182000 1.434001 0.078000
v 0.071000 1.411001 0.126000
v 0.167000 1.456001 0.066000
v 0.166000 1.411001 0.008000
v 0.147000 1.435001 0.054000
v 0.190000 1.428001 0.009000
v 0.203000 1.407001 0.025000
vn 0.9613 -0.1753 0.2124
vn 0.6108 -0.6069 -0.5085
vn 0.7625 -0.4268 0.4863
vn 0.5513 -0.1660 0.8177
vn 0.8086 -0.5249 -0.2656
vn 0.9199 -0.3457 0.1853
vn 0.7258 -0.6840 0.0732
vn 0.3091 0.0112 0.9510
vn 0.3286 -0.0689 0.9419
vn 0.1091 -0.2769 0.9547
vn -0.6108 -0.6069 -0.5085
vn -0.7258 -0.6840 0.0732
vn 0.3760 -0.6577 0.6528
vn -0.3091 0.0112 0.9510
vn -0.5513 -0.1660 0.8176
vn 0.3789 -0.3972 0.8359
vn 0.7795 0.3393 0.5266
vn 0.7991 -0.0976 -0.5933
vn 0.9122 0.3091 -0.2691
vn 0.2927 -0.1487 -0.9446
vn -0.3759 -0.6576 0.6528
vn -0.0000 -0.3712 0.9286
vn -0.2610 0.0598 0.9635
vn 0.0095 0.2632 0.9647
vn 0.1441 -0.0620 0.9876
vn -0.2927 -0.1487 -0.9446
vn -0.7625 -0.4268 0.4863
vn -0.0000 -0.1841 0.9829
vn 0.2788 -0.0430 0.9594
vn -0.0925 -0.1968 0.9761
vn 0.2678 0.6826 0.6799
vn 0.3315 0.9370 0.1103
vn 0.7839 0.6208 0.0088
vn 0.4204 0.7586 -0.4979
vn -0.9613 -0.1753 0.2124
vn -0.3789 -0.3972 0.8359
vn 0.2954 0.1191 0.9479
vn -0.2788 -0.0430 0.9594
vn -0.1441 -0.0620 0.9876
vn -0.2678 0.6826 0.6799
vn -0.4211 0.7575 -0.4990
vn -0.1091 -0.2769 0.9547
vn 0.2330 -0.3714 0.8988
vn -0.3315 0.9370 0.1103
vn -0.3286 -0.0689 0.9419
vn -0.8711 -0.4329 0.2319
vn 0.2610 0.0598 0.9635
vn 0.0925 -0.1968 0.9761
vn -0.0127 0.3545 0.9350
vn -0.2330 -0.3714 0.8988
vn -0.2200 0.0886 0.9715
vn -0.8507 0.2847 0.4419
vn -0.7839 0.6208 0.0088
vn -0.8945 -0.0727 -0.4412
vn -0.8361 0.4138 -0.3601
vn -0.8086 -0.5249 -0.2656
vn 0.0940 -0.8860 -0.4541
vn 0.4694 -0.0827 0.8791
vn 0.0940 -0.8860 0.4541
vn 0.4694 -0.0827 -0.8791
vn -0.6899 -0.7239 -0.0000
vn -0.9848 0.1736 -0.0000
vn 0.5071 0.1961 0.8393
vn 0.5071 0.1960 -0.8393
vn -0.9148 0.4038 -0.0000
vn -0.9978 -0.0666 -0.0000
vn 0.4094 -0.3576 0.8393
vn 0.4094 -0.3577 -0.8393
vn 0.4802 0.0473 -0.8759
vn -0.9590 0.2834 -0.0000
vn 0.4802 0.0474 0.8759
vn 0.3574 0.8457 0.3962
vn 0.3574 0.8457 -0.3962
vn -0.3284 0.9445 -0.0000
vn 0.3281 -0.4417 -0.8350
vn 0.5494 -0.3702 0.7491
vn 0.4106 -0.9098 -0.0608
vn 0.3897 0.5357 -0.7491
vn -0.4221 -0.7950 -0.4356
vn -0.9848 -0.1735 -0.0000
vn 0.4929 -0.1157 0.8623
vn 0.3403 0.7493 -0.5681
vn -0.9917 0.0317 0.1250
vn -0.9209 -0.3692 -0.1250
vn 0.5762 -0.5876 0.5681
vn 0.4236 0.2773 -0.8624
vn -0.9848 -0.1736 -0.0000
vn 0.1572 0.5273 0.8350
vn 0.0747 0.9954 0.0608
vn -0.6687 0.6026 0.4356
vn 0.8864 0.3357 -0.3188
vn -0.3030 0.3370 -0.8914
vn 0.2918 0.7414 -0.6043
vn -0.0884 0.9787 0.1855
vn 0.3060 0.4477 -0.8402
vn -0.3904 0.3364 -0.8570
vn 0.2295 0.7414 -0.6306
vn -0.0703 0.9786 0.1932
vn 0.8052 0.3370 -0.4880
vn -0.4741 0.3357 -0.8140
vn 0.1650 0.7415 -0.6504
vn -0.0515 0.9787 0.1988
vn 0.8499 0.3365 -0.4055
vn -0.0703 0.9787 0.1931
vn 0.8144 0.4514 -0.3647
vn -0.5271 0.7486 -0.4021
vn 0.6624 0.7486 0.0307
vn -0.3894 0.4514 -0.8029
vn 0.5117 0.4938 0.7031
vn -0.5345 0.7535 0.3829
vn 0.1634 0.7535 0.6368
vn -0.8439 0.4938 0.2097
vn 0.0495 -0.5143 0.8562
vn -0.7085 -0.4394 -0.5522
vn -0.2197 -0.9685 0.1169
vn -0.1878 0.4395 0.8784
vn 0.6628 -0.7211 0.2018
vn 0.9397 -0.0000 -0.3420
vn -0.7339 -0.1763 -0.6560
vn -0.2368 0.6630 0.7101
vn 0.8716 0.2068 -0.4444
vn 0.9533 -0.2068 -0.2200
vn -0.6379 -0.6630 -0.3918
vn -0.1406 0.1762 0.9743
vn -0.1995 0.5505 0.8107
vn 0.9145 0.0974 -0.3928
vn -0.7182 -0.3254 -0.6150
vn -0.4632 0.5770 -0.6727
vn -0.2285 0.9731 -0.0278
vn 0.3086 0.7562 -0.5770
vn -0.0276 -0.7642 0.6443
vn -0.7441 -0.1526 -0.6504
vn -0.3337 -0.9220 -0.1963
vn -0.1518 0.1526 0.9766
vn 0.5698 -0.8201 -0.0535
vn -0.7367 0.1311 -0.6634
vn -0.1714 0.4226 0.8899
vn 0.8983 0.2354 -0.3711
vn 0.9266 -0.2353 -0.2932
vn -0.7033 -0.4226 -0.5717
vn -0.1379 -0.1311 0.9817
vn -0.1519 0.1526 0.9766
vn -0.4353 0.7642 -0.4759
vn -0.1294 0.9220 0.3649
vn 0.4710 0.8200 -0.3252
vn 0.4731 0.3300 -0.8168
vn -0.8062 0.3301 -0.4910
vn -0.1675 0.7351 -0.6570
vn 0.0483 0.9806 0.1900
vn -0.3073 0.4392 -0.8442
vn -0.8510 0.3300 -0.4084
vn -0.2319 0.7350 -0.6371
vn 0.0671 0.9806 0.1844
vn 0.3020 0.3301 -0.8943
vn -0.8874 0.3301 -0.3218
vn -0.2942 0.7351 -0.6108
vn 0.0850 0.9806 0.1768
vn 0.3894 0.3301 -0.8599
vn -0.3074 0.4392 -0.8442
vn 0.0671 0.9806 0.1843
vn 0.3880 0.4454 -0.8069
vn -0.6648 0.7466 0.0242
vn 0.5247 0.7466 -0.4089
vn -0.8159 0.4453 -0.3688
vn 0.8422 0.4985 0.2053
vn -0.1657 0.7587 0.6300
vn 0.5320 0.7587 0.3760
vn -0.5134 0.4984 0.6986
vn 0.4417 -0.8836 0.1557
vn -0.2920 0.1660 0.9419
vn -0.0957 -0.8759 0.4729
vn 1.0000 -0.0001 -0.0000
vn -0.0957 -0.9848 -0.1447
vn -0.2919 -0.1660 -0.9419
vn -0.3218 0.6969 0.6409
vn 0.9063 0.4163 -0.0735
vn -0.3218 0.4356 -0.8407
vn -0.4116 -0.5046 -0.7589
vn -0.4116 -0.2146 0.8857
vn 0.9712 -0.2346 0.0415
vn 0.9779 0.2058 -0.0364
vn -0.4457 -0.0295 -0.8947
vn -0.4458 0.2781 0.8508
vn -0.1945 0.9641 0.1809
vn 0.4416 0.8836 -0.1558
vn -0.1946 0.8440 -0.4998
vn 0.2793 0.3284 0.9023
vn -0.2859 0.9582 0.0148
vn -0.2583 0.6072 0.7514
vn 0.7325 0.2329 0.6397
vn -0.2583 0.0178 0.9659
vn -0.2859 -0.7243 0.6274
vn -0.2761 0.7289 -0.6264
vn 0.9434 0.1135 0.3117
vn -0.2761 -0.9611 -0.0112
vn -0.4688 -0.6861 0.5564
vn -0.4687 0.8832 -0.0149
vn 0.9151 0.1380 0.3789
vn 0.9994 -0.0122 -0.0337
vn -0.2876 -0.9577 -0.0083
vn -0.2876 0.7285 -0.6217
vn 0.0698 -0.0293 -0.9971
vn 0.5909 -0.2759 -0.7581
vn 0.0698 -0.6186 -0.7826
vn -0.5764 0.6555 0.4880
vn -0.7192 -0.6470 0.2532
vn -0.5764 -0.1882 0.7952
vn -0.7192 0.6584 -0.2219
vn 0.3079 0.7087 0.6348
vn 0.3079 -0.1351 0.9418
vn 0.6860 -0.6032 0.4070
vn -0.4119 -0.7444 -0.5256
vn -0.4119 0.2324 -0.8811
vn 0.6859 0.7237 -0.0761
vn 0.6001 -0.6699 -0.4373
vn 0.6001 0.2319 -0.7656
vn -0.6184 -0.2688 -0.7385
vn 0.6126 -0.4099 0.6758
vn -0.7448 -0.4919 0.4509
vn 0.8498 -0.1802 -0.4953
vn -0.7448 0.6667 0.0293
vn 0.6125 0.7485 0.2541
vn 0.4812 -0.4873 0.7287
vn 0.0391 0.9519 0.3040
vn 0.0391 -0.5339 0.8446
vn 0.4811 0.8416 0.2454
vn -0.0007 -0.9510 -0.3093
vn -0.5518 -0.7608 0.3416
vn 0.4041 -0.8667 0.2925
vn -0.5517 0.8025 -0.2273
vn -0.0007 0.5295 -0.8483
vn 0.4040 0.8520 -0.3330
vn -0.4414 0.4755 -0.7609
vn -0.4414 -0.8534 -0.2773
vn -0.0291 -0.9650 -0.2605
vn -0.0290 0.5718 -0.8199
vn 0.8089 -0.5579 0.1858
vn 0.8088 0.5469 -0.2163
vn 0.3582 0.8191 0.4480
vn -0.9652 -0.0894 -0.2456
vn -0.6906 0.2473 0.6796
vn 0.4976 0.8513 -0.1665
vn 0.3582 -0.3394 0.8698
vn 0.4975 -0.7592 0.4197
vn -0.2315 -0.3327 -0.9142
vn 0.6631 0.4341 -0.6098
vn 0.6632 -0.7244 -0.1882
vn -0.4417 -0.8835 0.1558
vn 0.2918 -0.1660 -0.9420
vn 0.0957 -0.9848 -0.1448
vn -1.0000 -0.0000 -0.0000
vn 0.0957 -0.8759 0.4729
vn 0.2918 0.1660 0.9420
vn 0.3218 0.4356 -0.8406
vn -0.9063 0.4162 -0.0735
vn 0.3218 0.6969 0.6409
vn 0.4116 -0.2146 0.8857
vn 0.4116 -0.5046 -0.7589
vn -0.9712 -0.2347 0.0413
vn -0.9779 0.2058 -0.0364
vn 0.4458 0.2781 0.8508
vn 0.4458 -0.0295 -0.8947
vn 0.1946 0.8440 -0.4998
vn -0.4417 0.8836 -0.1558
vn 0.1946 0.9641 0.1809
vn -0.4416 0.1558 0.8836
vn 0.2222 -0.8145 0.5359
vn 0.0957 -0.1447 0.9848
vn -0.8395 0.0942 0.5351
vn 0.0957 0.4729 0.8759
vn 0.2222 0.9487 0.2249
vn 0.3308 -0.9353 -0.1257
vn -0.9866 0.0283 0.1606
vn 0.3308 0.8359 -0.4380
vn 0.4116 0.8857 0.2146
vn 0.4116 -0.7590 0.5046
vn -0.9712 0.0415 0.2346
vn -0.9779 -0.0364 -0.2058
vn 0.3413 0.8349 -0.4318
vn 0.3414 -0.9322 -0.1201
vn 0.0957 -0.4728 -0.8759
vn -0.4416 -0.1558 -0.8836
vn 0.0957 0.1448 -0.9848
vn 0.4489 -0.5764 0.6828
vn 0.7055 0.6595 0.2596
vn 0.4489 0.3080 0.8388
vn 0.7054 -0.7086 0.0183
vn -0.4490 -0.5764 0.6828
vn -0.4489 0.3081 0.8388
vn -0.7060 0.6860 0.1760
vn 0.5356 0.6274 -0.5652
vn 0.5357 -0.3963 -0.7456
vn -0.7060 -0.7048 -0.0691
vn -0.4797 0.6001 -0.6401
vn -0.4798 -0.3450 -0.8067
vn 0.4639 -0.8851 0.0379
vn 0.3704 -0.3926 0.8418
vn 0.2529 -0.8424 0.4758
vn 0.8972 -0.3010 0.3230
vn -0.1504 -0.8413 -0.5193
vn -0.1909 -0.9325 0.3066
vn -0.3704 -0.3926 0.8418
vn 0.3528 0.2205 0.9094
vn 0.8572 0.3081 0.4126
vn 0.6148 -0.6917 -0.3789
vn 0.8972 -0.1724 -0.4065
vn -0.3528 0.2205 0.9094
vn 0.2530 -0.6289 -0.7351
vn 0.3704 -0.0810 -0.9253
vn -0.6148 -0.7796 0.1194
vn -0.8972 -0.3011 0.3230
vn -0.8572 0.3081 0.4126
vn -0.3528 0.2204 0.9094
vn 0.8572 0.4307 -0.2822
vn -0.3704 -0.0810 -0.9253
vn 0.3528 0.5183 -0.7790
vn -0.6148 -0.6917 -0.3789
vn -0.8972 -0.1724 -0.4065
vn -0.8572 0.4307 -0.2822
vn -0.9155 -0.1997 0.3493
vn -0.3790 -0.2927 0.8779
vn 0.3789 -0.2927 0.8779
vn 0.9155 -0.1997 0.3494
vn -0.3528 0.5183 -0.7790
vn -0.9154 -0.0681 -0.3967
vn -0.3528 0.5183 -0.7791
vn -0.3789 0.0251 -0.9251
vn -0.8877 -0.2871 -0.3599
vn -0.8876 -0.3931 0.2400
vn -0.3122 -0.7516 0.5810
vn 0.3122 -0.7516 0.5810
vn 0.8877 -0.3930 0.2400
vn 0.9154 -0.0681 -0.3967
vn -0.3123 -0.5076 -0.8030
vn 0.3789 0.0251 -0.9251
vn 0.3123 -0.5076 -0.8030
vn -0.0068 -0.8702 0.4927
vn 0.8877 -0.2871 -0.3599
vn -0.9153 0.3289 0.2324
vn 0.8460 0.4636 0.2632
vn -0.8460 0.5257 -0.0886
vn -0.2480 0.7930 0.5564
vn 0.9153 0.3887 -0.1060
vn -0.8773 0.4175 0.2366
vn -0.8772 0.4734 -0.0796
vn -0.0000 0.8642 0.5032
vn 0.2546 0.9097 0.3281
vn 0.0068 -0.6492 -0.7606
vn -0.9834 -0.0620 0.1706
vn -0.0000 -0.0542 0.9985
vn -0.0000 0.9842 -0.1773
vn -0.9834 0.0002 -0.1814
vn 0.2480 0.9355 -0.2517
vn -0.2546 0.9670 0.0029
vn -0.0000 0.2906 -0.9568
vn 0.8773 0.4176 0.2366
vn -0.9996 0.0271 0.0049
vn 0.9834 -0.0620 0.1707
vn 0.8772 0.4734 -0.0796
vn 0.9834 0.0003 -0.1814
vn -0.0000 0.9848 0.1736
vn 0.9996 0.0271 0.0049
vn -0.5638 0.6223 0.5430
vn -0.1445 -0.8819 0.4488
vn -0.1445 0.6752 0.7233
vn -0.5639 -0.7705 0.2974
vn 0.1077 0.8811 -0.4604
vn 0.5330 0.7920 0.2979
vn -0.3941 0.9165 0.0686
vn 0.5329 -0.8461 0.0088
vn 0.1076 -0.6704 -0.7341
vn -0.3941 -0.8848 -0.2488
vn 0.5305 -0.6152 -0.5832
vn 0.5305 0.7776 -0.3376
vn 0.1284 0.9027 -0.4107
vn 0.1287 -0.7078 -0.6946
vn -0.7938 0.6060 -0.0520
vn -0.7937 -0.5518 -0.2561
vn -0.4747 -0.4978 0.7259
vn 0.9960 -0.0156 -0.0884
vn 0.5544 0.1445 0.8196
vn -0.5134 -0.8359 0.1943
vn -0.4746 0.7161 0.5118
vn -0.5134 0.8519 -0.1033
vn 0.3967 -0.1594 -0.9040
vn -0.5793 -0.6996 -0.4182
vn -0.5793 0.5144 -0.6323
vn -0.6164 -0.6741 0.4070
vn -0.0000 0.1407 -0.9901
vn -0.0000 -0.7703 -0.6377
vn -0.8545 -0.0730 0.5143
vn 0.6165 -0.6740 0.4070
vn 0.8544 -0.0730 0.5144
vn -0.0000 0.4435 -0.8963
vn -0.8530 -0.2317 0.4677
vn 0.8530 -0.2317 0.4677
vn 0.6164 0.3545 0.7031
vn -0.0000 0.9914 -0.1306
vn -0.6164 0.3545 0.7031
vn -0.2127 -0.3078 0.9274
vn 0.2146 -0.8968 -0.3870
vn 0.8333 -0.5247 0.1741
vn -0.9548 -0.0938 0.2820
vn 0.8333 0.3164 0.4534
vn 0.2146 0.9502 0.2260
vn 0.1641 -0.9755 -0.1465
vn -0.7954 0.1909 -0.5752
vn 0.1641 0.8694 0.4661
vn 0.1052 0.8208 0.5615
vn 0.1052 -0.9936 -0.0408
vn -0.3584 0.2942 -0.8860
vn -0.8333 -0.5247 0.1741
vn 0.9548 -0.0937 0.2820
vn 0.2126 -0.3079 0.9274
vn -0.2146 -0.8968 -0.3870
vn -0.8333 0.3164 0.4534
vn -0.2146 0.9502 0.2260
vn 0.7954 0.1909 -0.5752
vn -0.1640 -0.9755 -0.1465
vn -0.1641 0.8694 0.4661
vn -0.1052 0.8208 0.5615
vn 0.3584 0.2942 -0.8860
vn -0.1052 -0.9936 -0.0408
vn -0.1631 -0.3108 0.9364
vn 0.2397 -0.8872 -0.3943
vn 0.8156 -0.5564 0.1589
vn -0.9502 -0.0981 0.2959
vn 0.8157 0.3508 0.4599
vn 0.2398 0.9468 0.2146
vn 0.1838 -0.9741 -0.1314
vn -0.7817 0.1965 -0.5918
vn 0.1838 0.8593 0.4773
vn 0.1055 0.8055 0.5831
vn 0.1055 -0.9943 -0.0144
vn -0.3318 0.2971 -0.8953
vn -0.8156 -0.5563 0.1589
vn 0.9502 -0.0981 0.2959
vn 0.1631 -0.3108 0.9364
vn -0.2397 -0.8872 -0.3943
vn -0.8157 0.3509 0.4600
vn -0.2398 0.9468 0.2146
vn 0.7817 0.1965 -0.5918
vn -0.1838 -0.9741 -0.1314
vn -0.1838 0.8593 0.4773
vn -0.1055 0.8055 0.5831
vn 0.3318 0.2971 -0.8953
vn -0.1055 -0.9943 -0.0144
vn -0.1145 -0.3130 0.9428
vn 0.2659 -0.8768 -0.4007
vn 0.7984 -0.5853 0.1413
vn -0.9448 -0.1033 0.3108
vn 0.7984 0.3845 0.4634
vn 0.2659 0.9423 0.2034
vn 0.2055 -0.9719 -0.1150
vn -0.7662 0.2024 -0.6099
vn 0.2055 0.8476 0.4892
vn 0.1047 0.7897 0.6045
vn 0.1048 -0.9944 0.0124
vn -0.3069 0.2998 -0.9033
vn -0.7984 -0.5853 0.1413
vn 0.9449 -0.1033 0.3108
vn 0.1145 -0.3130 0.9428
vn -0.2659 -0.8768 -0.4007
vn -0.7984 0.3845 0.4634
vn -0.2659 0.9423 0.2034
vn 0.7662 0.2028 -0.6098
vn -0.2055 -0.9719 -0.1150
vn -0.2056 0.8477 0.4891
vn -0.1048 0.7896 0.6046
vn 0.3069 0.2998 -0.9033
vn -0.1047 -0.9944 0.0125
vn -0.9449 -0.1032 0.3108
vn 0.2056 -0.9719 -0.1149
vn 0.1047 0.7896 0.6046
vn 0.1048 -0.9944 0.0125
vn -0.3069 0.2999 -0.9033
vn 0.9448 -0.1033 0.3108
vn 0.7662 0.2024 -0.6100
vn -0.2055 0.8477 0.4890
vn -0.1047 0.7897 0.6045
vn -0.1047 -0.9944 0.0124
vn -0.1340 -0.3123 0.9405
vn 0.2458 -0.8850 -0.3955
vn 0.8007 -0.5732 0.1738
vn -0.9445 -0.1035 0.3117
vn 0.8007 0.3555 0.4821
vn 0.2459 0.9458 0.2122
vn 0.1897 -0.9731 -0.1304
vn -0.7649 0.2029 -0.6113
vn 0.1897 0.8579 0.4775
vn 0.0974 0.8049 0.5854
vn 0.0974 -0.9952 -0.0122
vn -0.8007 -0.5732 0.1738
vn 0.9445 -0.1035 0.3117
vn 0.1340 -0.3123 0.9405
vn -0.2458 -0.8850 -0.3955
vn -0.8007 0.3555 0.4822
vn -0.2459 0.9458 0.2122
vn 0.7649 0.2029 -0.6114
vn -0.1897 -0.9731 -0.1304
vn -0.1897 0.8579 0.4775
vn -0.0974 0.8049 0.5854
vn 0.3069 0.2999 -0.9032
vn -0.0974 -0.9952 -0.0122
vn 0.1794 0.7022 0.6890
vn 0.2656 0.9608 -0.0796
vn -0.8008 0.4270 0.4199
vn -0.7927 0.5430 -0.2771
vn 0.9300 -0.2602 -0.2597
vn -0.0000 0.9862 -0.1655
vn -0.8954 -0.3875 -0.2192
vn 0.3260 -0.1287 -0.9366
vn -0.0000 -0.8729 0.4879
vn -0.0000 0.5239 0.8518
vn 0.0510 -0.8200 -0.5702
vn -0.0000 -0.6002 -0.7999
vn -0.1794 0.7022 0.6890
vn 0.8008 0.4270 0.4199
vn -0.0510 -0.8199 -0.5702
vn -0.9299 -0.2602 -0.2597
vn -0.2657 0.9608 -0.0796
vn 0.7927 0.5430 -0.2771
vn 0.8954 -0.3875 -0.2192
vn -0.3259 -0.1287 -0.9366
vn 0.3054 -0.4817 -0.8214
vn -0.7099 -0.4441 0.5466
vn -0.7092 -0.6079 -0.3569
vn 0.8071 -0.2851 -0.5171
vn -0.4126 0.4902 -0.7678
vn -0.0850 0.9937 -0.0727
vn -0.6546 -0.6827 0.3247
vn 0.5081 -0.2546 -0.8228
vn 0.3007 0.8862 0.3525
vn -0.0000 -0.3150 -0.9491
vn 0.0001 0.0190 0.9998
vn -0.0000 0.8945 0.4470
vn 0.6546 -0.6827 0.3247
vn -0.3007 0.8862 0.3525
vn -0.5081 -0.2547 -0.8228
vn -0.8071 -0.2851 -0.5171
vn 0.7099 -0.4441 0.5466
vn 0.0850 0.9937 -0.0727
vn -0.3054 -0.4816 -0.8215
vn 0.7092 -0.6079 -0.3569
vn 0.4125 0.4902 -0.7679
vt 0.148368 0.226475
vt 0.206907 0.226475
vt 0.206907 0.694780
vt 0.789444 0.295714
vt 0.830673 0.295714
vt 0.830673 0.625541
vt 0.398834 0.281264
vt 0.458440 0.281264
vt 0.458440 0.758109
vt 0.289039 0.347841
vt 0.336922 0.347841
vt 0.336922 0.730905
vt 0.528098 0.291684
vt 0.580177 0.291684
vt 0.580177 0.708316
vt 0.281251 0.265847
vt 0.339789 0.265847
vt 0.339789 0.734153
vt 0.033398 0.291028
vt 0.095484 0.291028
vt 0.095484 0.787717
vt 0.669582 0.380184
vt 0.704457 0.380184
vt 0.704457 0.659189
s 1
usemtl vertexColors
f 2/1/1 10/2/2 5/3/3
f 1/1/4 2/2/1 5/3/3
f 5/1/3 3/2/5 8/3/6
f 5/1/3 10/2/2 3/3/5
f 2/1/1 11/2/7 10/3/2
f 11/1/7 2/2/1 1/3/4
f 1/1/4 5/2/3 4/3/8
f 16/1/9 5/2/3 8/3/6
f 16/1/9 14/2/10 5/3/3
f 11/1/7 54/2/11 10/3/2
f 11/1/7 26/2/12 54/3/11
f 6/1/13 11/2/7 1/3/4
f 22/1/14 1/2/4 4/3/8
f 22/1/14 7/2/15 1/3/4
f 35/1/16 4/2/8 5/3/3
f 16/1/9 8/2/6 18/3/17
f 8/1/6 9/2/18 37/3/19
f 8/1/6 3/2/5 9/3/18
f 3/1/5 21/2/20 9/3/18
f 3/1/5 10/2/2 21/3/20
f 11/1/7 12/2/21 26/3/12
f 11/1/7 6/2/13 12/3/21
f 7/1/15 6/2/13 1/3/4
f 7/1/15 12/2/21 6/3/13
f 4/4/8 13/5/22 22/6/14
f 35/1/16 5/2/3 14/3/10
f 15/4/23 14/5/10 16/6/9
f 15/4/23 39/5/24 14/6/10
f 16/1/9 18/2/17 34/3/25
f 55/1/26 10/2/2 54/3/11
f 55/1/26 21/2/20 10/3/2
f 7/1/15 22/2/14 32/3/27
f 22/4/14 13/5/22 36/6/28
f 13/4/22 4/5/8 36/6/28
f 35/1/16 14/2/10 29/3/29
f 34/4/25 15/5/23 16/6/9
f 34/4/25 38/5/30 15/6/23
f 34/1/25 18/2/17 17/3/31
f 20/1/32 18/2/17 19/3/33
f 20/1/32 17/2/31 18/3/17
f 19/1/33 37/2/19 31/3/34
f 9/1/18 31/2/34 37/3/19
f 9/1/18 21/2/20 31/3/34
f 26/1/12 25/2/35 54/3/11
f 26/1/12 12/2/21 7/3/15
f 25/1/35 7/2/15 32/3/27
f 32/1/27 22/2/14 27/3/36
f 14/4/10 28/5/37 29/6/29
f 14/4/10 39/5/24 28/6/37
f 36/1/28 29/2/29 23/3/38
f 39/7/24 15/8/23 38/9/30
f 17/1/31 24/2/39 34/3/25
f 17/1/31 30/2/40 24/3/39
f 19/1/33 31/2/34 20/3/32
f 52/1/41 21/2/20 55/3/26
f 52/1/41 31/2/34 21/3/20
f 54/1/11 25/2/35 32/3/27
f 26/1/12 7/2/15 25/3/35
f 42/1/42 32/2/27 27/3/36
f 28/4/37 33/5/43 29/6/29
f 24/1/39 29/2/29 34/3/25
f 24/1/39 23/2/38 29/3/29
f 33/4/43 38/5/30 34/6/25
f 20/1/32 30/2/40 17/3/31
f 20/1/32 49/2/44 30/3/40
f 31/1/34 49/2/44 20/3/32
f 31/1/34 52/2/41 49/3/44
f 46/1/45 32/2/27 42/3/42
f 46/1/45 48/2/46 32/3/27
f 27/1/36 23/2/38 42/3/42
f 29/4/29 33/5/43 34/6/25
f 35/1/16 36/2/28 4/3/8
f 35/1/16 29/2/29 36/3/28
f 23/1/38 22/2/14 36/3/28
f 23/1/38 27/2/36 22/3/14
f 8/1/6 19/2/33 18/3/17
f 8/1/6 37/2/19 19/3/33
f 28/7/37 38/8/30 33/9/43
f 28/7/37 39/8/24 38/9/30
f 45/4/47 24/5/39 46/6/45
f 45/4/47 44/5/48 24/6/39
f 42/4/42 45/5/47 46/6/45
f 42/4/42 40/5/49 45/6/47
f 44/4/48 43/5/50 24/6/39
f 42/4/42 41/5/51 40/6/49
f 42/4/42 23/5/38 41/6/51
f 43/4/50 23/5/38 24/6/39
f 43/4/50 41/5/51 23/6/38
f 43/7/50 44/8/48 41/9/51
f 41/7/51 45/8/47 40/9/49
f 41/7/51 44/8/48 45/9/47
f 46/1/45 24/2/39 47/3/52
f 30/1/40 47/2/52 24/3/39
f 47/1/52 48/2/46 46/3/45
f 49/1/44 47/2/52 30/3/40
f 49/1/44 50/2/53 47/3/52
f 50/1/53 53/2/54 47/3/52
f 50/1/53 51/2/55 53/3/54
f 52/1/41 50/2/53 49/3/44
f 54/1/11 48/2/46 56/3/56
f 54/1/11 32/2/27 48/3/46
f 52/1/41 51/2/55 50/3/53
f 52/1/41 53/2/54 51/3/55
f 52/1/41 55/2/26 53/3/54
f 53/1/54 54/2/11 56/3/56
f 53/1/54 55/2/26 54/3/11
f 47/1/52 56/2/56 48/3/46
f 47/1/52 53/2/54 56/3/56
f 57/1/57 61/2/58 58/3/59
f 57/1/57 60/2/60 61/3/58
f 59/1/61 57/2/57 58/3/59
f 61/1/58 59/2/61 58/3/59
f 61/1/58 63/2/62 59/3/61
f 60/1/60 62/2/63 61/3/58
f 60/1/60 66/2/64 62/3/63
f 59/1/61 60/2/60 57/3/57
f 59/1/61 63/2/62 60/3/60
f 61/1/58 64/2/65 63/3/62
f 61/1/58 62/2/63 64/3/65
f 64/1/65 60/2/60 63/3/62
f 64/1/65 66/2/64 60/3/60
f 62/1/63 69/2/66 64/3/65
f 62/1/63 65/2/67 69/3/66
f 66/1/64 65/2/67 62/3/63
f 66/1/64 67/2/68 65/3/67
f 64/1/65 67/2/68 66/3/64
f 64/1/65 69/2/66 67/3/68
f 69/1/66 68/2/69 67/3/68
f 69/1/66 70/2/70 68/3/69
f 65/1/67 70/2/70 69/3/66
f 65/1/67 72/2/71 70/3/70
f 67/1/68 72/2/71 65/3/67
f 67/1/68 68/2/69 72/3/71
f 68/1/69 73/2/72 72/3/71
f 68/1/69 71/2/73 73/3/72
f 70/1/70 71/2/73 68/3/69
f 70/1/70 74/2/74 71/3/73
f 72/1/71 74/2/74 70/3/70
f 72/1/71 73/2/72 74/3/74
f 73/1/72 71/2/73 74/3/74
f 79/1/75 76/2/76 75/3/77
f 79/1/75 78/2/78 76/3/76
f 77/1/79 79/2/75 75/3/77
f 76/1/76 77/2/79 75/3/77
f 76/1/76 80/2/80 77/3/79
f 78/1/78 81/2/81 76/3/76
f 78/1/78 83/2/82 81/3/81
f 77/1/79 78/2/78 79/3/75
f 77/1/79 80/2/80 78/3/78
f 76/1/76 82/2/83 80/3/80
f 76/1/76 81/2/81 82/3/83
f 82/1/83 78/2/78 80/3/80
f 82/1/83 83/2/82 78/3/78
f 81/1/81 85/2/84 82/3/83
f 81/1/81 87/2/85 85/3/84
f 83/1/82 87/2/85 81/3/81
f 83/1/82 84/2/86 87/3/85
f 82/1/83 84/2/86 83/3/82
f 82/1/83 85/2/84 84/3/86
f 85/1/84 88/2/78 84/3/86
f 85/1/84 86/2/87 88/3/78
f 87/1/85 86/2/87 85/3/84
f 87/1/85 90/2/76 86/3/87
f 84/1/86 90/2/76 87/3/85
f 84/1/86 88/2/78 90/3/76
f 88/1/78 92/2/88 90/3/76
f 88/1/78 89/2/89 92/3/88
f 86/1/87 89/2/89 88/3/78
f 86/1/87 91/2/90 89/3/89
f 90/1/76 91/2/90 86/3/87
f 90/1/76 92/2/88 91/3/90
f 89/1/89 91/2/90 92/3/88
f 96/1/91 93/2/92 95/3/93
f 93/1/92 94/2/94 95/3/93
f 94/1/94 96/2/91 95/3/93
f 99/1/95 97/2/96 100/3/97
f 97/1/96 98/2/98 100/3/97
f 98/1/98 99/2/95 100/3/97
f 101/1/99 102/2/100 104/3/101
f 102/1/100 103/2/102 104/3/101
f 103/1/102 101/2/99 104/3/101
f 107/1/103 99/2/95 105/3/97
f 99/1/95 106/2/104 105/3/97
f 106/1/104 107/2/103 105/3/97
f 108/1/105 109/2/106 111/3/107
f 108/1/105 112/2/108 109/3/106
f 110/1/109 108/2/105 111/3/107
f 115/1/110 111/2/107 109/3/106
f 115/1/110 114/2/111 111/3/107
f 112/1/108 113/2/112 109/3/106
f 114/1/111 110/2/109 111/3/107
f 113/1/112 115/2/110 109/3/106
f 114/1/111 113/2/112 110/3/109
f 114/1/111 115/2/110 113/3/112
f 118/1/113 119/2/114 116/3/115
f 118/1/113 121/2/116 119/3/114
f 117/1/117 118/2/113 116/3/115
f 119/1/114 117/2/117 116/3/115
f 119/1/114 122/2/118 117/3/117
f 121/1/116 120/2/119 119/3/114
f 121/1/116 124/2/120 120/3/119
f 117/1/117 121/2/116 118/3/113
f 117/1/117 122/2/118 121/3/116
f 119/1/114 123/2/121 122/3/118
f 119/1/114 120/2/119 123/3/121
f 123/1/121 121/2/116 122/3/118
f 123/1/121 124/2/120 121/3/116
f 120/1/119 126/2/122 123/3/121
f 120/1/119 125/2/123 126/3/122
f 124/1/120 125/2/123 120/3/119
f 124/1/120 128/2/124 125/3/123
f 123/1/121 128/2/124 124/3/120
f 123/1/121 126/2/122 128/3/124
f 126/1/122 129/2/125 128/3/124
f 126/1/122 131/2/126 129/3/125
f 125/1/123 131/2/126 126/3/122
f 125/1/123 127/2/127 131/3/126
f 128/1/124 127/2/127 125/3/123
f 128/1/124 129/2/125 127/3/127
f 129/1/125 130/2/128 127/3/127
f 129/1/125 132/2/129 130/3/128
f 131/1/126 132/2/129 129/3/125
f 131/1/126 133/2/130 132/3/129
f 127/1/127 133/2/130 131/3/126
f 127/1/127 130/2/128 133/3/130
f 132/1/129 133/2/130 130/3/128
f 139/1/131 135/2/132 134/3/133
f 139/1/131 138/2/134 135/3/132
f 137/1/135 139/2/131 134/3/133
f 135/1/132 137/2/135 134/3/133
f 135/1/132 140/2/118 137/3/135
f 138/1/134 136/2/136 135/3/132
f 138/1/134 141/2/137 136/3/136
f 137/1/135 138/2/134 139/3/131
f 137/1/135 140/2/118 138/3/134
f 135/1/132 142/2/138 140/3/118
f 135/1/132 136/2/136 142/3/138
f 142/1/138 138/2/134 140/3/118
f 142/1/138 141/2/137 138/3/134
f 136/1/136 143/2/139 142/3/138
f 136/1/136 144/2/140 143/3/139
f 141/1/137 144/2/140 136/3/136
f 141/1/137 146/2/141 144/3/140
f 142/1/138 146/2/141 141/3/137
f 142/1/138 143/2/139 146/3/141
f 143/1/139 148/2/142 146/3/141
f 143/1/139 150/2/118 148/3/142
f 144/1/140 150/2/118 143/3/139
f 144/1/140 145/2/132 150/3/118
f 146/1/141 145/2/132 144/3/140
f 146/1/141 148/2/142 145/3/132
f 148/1/142 147/2/143 145/3/132
f 148/1/142 149/2/144 147/3/143
f 150/1/118 149/2/144 148/3/142
f 150/1/118 151/2/145 149/3/144
f 145/1/132 151/2/145 150/3/118
f 145/1/132 147/2/143 151/3/145
f 147/1/143 149/2/144 151/3/145
f 152/1/146 153/2/147 154/3/148
f 153/1/147 155/2/149 154/3/148
f 155/1/149 152/2/146 154/3/148
f 159/1/150 156/2/151 157/3/152
f 156/1/151 158/2/153 157/3/152
f 158/1/153 159/2/150 157/3/152
f 162/1/154 160/2/155 163/3/156
f 160/1/155 161/2/157 163/3/156
f 161/1/157 162/2/154 163/3/156
f 166/1/158 159/2/159 164/3/152
f 159/1/159 165/2/160 164/3/152
f 165/1/160 166/2/158 164/3/152
f 167/1/161 168/2/162 171/3/163
f 167/1/161 172/2/164 168/3/162
f 169/1/165 167/2/161 171/3/163
f 170/1/166 171/2/163 168/3/162
f 170/1/166 173/2/167 171/3/163
f 172/1/164 174/2/168 168/3/162
f 173/1/167 169/2/165 171/3/163
f 174/1/168 170/2/166 168/3/162
f 173/1/167 174/2/168 169/3/165
f 173/1/167 170/2/166 174/3/168
f 180/1/169 176/2/170 175/3/171
f 180/1/169 177/2/172 176/3/170
f 179/1/173 180/2/169 175/3/171
f 176/1/170 179/2/173 175/3/171
f 176/1/170 181/2/174 179/3/173
f 177/1/172 182/2/175 176/3/170
f 177/1/172 178/2/176 182/3/175
f 179/1/173 177/2/172 180/3/169
f 179/1/173 181/2/174 177/3/172
f 176/1/170 184/2/177 181/3/174
f 176/1/170 182/2/175 184/3/177
f 184/1/177 177/2/172 181/3/174
f 184/1/177 178/2/176 177/3/172
f 182/1/175 183/2/178 184/3/177
f 182/1/175 185/2/179 183/3/178
f 178/1/176 185/2/179 182/3/175
f 178/1/176 186/2/180 185/3/179
f 184/1/177 186/2/180 178/3/176
f 184/1/177 183/2/178 186/3/180
f 183/1/178 187/2/181 186/3/180
f 183/1/178 190/2/182 187/3/181
f 185/1/179 190/2/182 183/3/178
f 185/1/179 188/2/183 190/3/182
f 186/1/180 188/2/183 185/3/179
f 186/1/180 187/2/181 188/3/183
f 187/1/181 189/2/184 188/3/183
f 187/1/181 191/2/185 189/3/184
f 190/1/182 191/2/185 187/3/181
f 190/1/182 192/2/186 191/3/185
f 188/1/183 192/2/186 190/3/182
f 188/1/183 189/2/184 192/3/186
f 191/1/185 192/2/186 189/3/184
f 194/1/187 193/2/188 195/3/189
f 194/1/187 197/2/190 193/3/188
f 196/1/191 194/2/187 195/3/189
f 193/1/188 196/2/191 195/3/189
f 193/1/188 198/2/192 196/3/191
f 197/1/190 201/2/193 193/3/188
f 197/1/190 203/2/194 201/3/193
f 196/1/191 197/2/190 194/3/187
f 196/1/191 198/2/192 197/3/190
f 193/1/188 199/2/195 198/3/192
f 193/1/188 201/2/193 199/3/195
f 199/1/195 197/2/190 198/3/192
f 199/1/195 203/2/194 197/3/190
f 201/1/193 200/2/196 199/3/195
f 201/1/193 202/2/197 200/3/196
f 203/1/194 202/2/197 201/3/193
f 203/1/194 204/2/198 202/3/197
f 199/1/195 204/2/198 203/3/194
f 199/1/195 200/2/196 204/3/198
f 200/1/196 209/2/199 204/3/198
f 200/1/196 205/2/200 209/3/199
f 202/1/197 205/2/200 200/3/196
f 202/1/197 206/2/201 205/3/200
f 204/1/198 206/2/201 202/3/197
f 204/1/198 209/2/199 206/3/201
f 209/1/199 207/2/202 206/3/201
f 209/1/199 208/2/203 207/3/202
f 205/1/200 208/2/203 209/3/199
f 205/1/200 210/2/204 208/3/203
f 206/1/201 210/2/204 205/3/200
f 206/1/201 207/2/202 210/3/204
f 208/1/203 210/2/204 207/3/202
f 215/1/205 214/2/206 212/3/207
f 215/1/205 222/2/208 214/3/206
f 212/1/207 211/2/209 215/3/205
f 212/1/207 213/2/210 211/3/209
f 214/1/206 213/2/210 212/3/207
f 214/1/206 216/2/211 213/3/210
f 222/1/208 220/2/212 214/3/206
f 222/1/208 221/2/213 220/3/212
f 211/1/209 222/2/208 215/3/205
f 211/1/209 217/2/214 222/3/208
f 214/1/206 218/2/215 216/3/211
f 214/1/206 220/2/212 218/3/215
f 213/1/210 217/2/214 211/3/209
f 213/1/210 216/2/211 217/3/214
f 218/1/215 217/2/214 216/3/211
f 218/1/215 219/2/216 217/3/214
f 220/1/212 219/2/216 218/3/215
f 220/1/212 221/2/213 219/3/216
f 217/1/214 221/2/213 222/3/208
f 217/1/214 219/2/216 221/3/213
f 223/1/217 226/2/218 224/3/219
f 223/1/217 225/2/220 226/3/218
f 228/1/221 223/2/217 224/3/219
f 226/1/218 228/2/221 224/3/219
f 226/1/218 227/2/222 228/3/221
f 227/1/222 226/2/218 225/3/220
f 228/1/221 225/2/220 223/3/217
f 228/1/221 227/2/222 225/3/220
f 240/1/223 229/2/224 230/3/225
f 240/1/223 242/2/226 229/3/224
f 231/1/227 232/2/228 235/3/229
f 231/1/227 230/2/225 232/3/228
f 234/1/230 230/2/225 229/3/224
f 234/1/230 232/2/228 230/3/225
f 233/1/231 234/2/230 229/3/224
f 233/1/231 237/2/232 234/3/230
f 231/1/227 215/2/233 212/3/234
f 231/1/227 233/2/231 215/3/233
f 235/1/229 233/2/231 231/3/227
f 235/1/229 237/2/232 233/3/231
f 234/1/230 239/2/235 232/3/228
f 234/1/230 238/2/236 239/3/235
f 237/1/232 241/2/237 236/3/238
f 237/1/232 235/2/229 241/3/237
f 238/1/236 241/2/237 239/3/235
f 238/1/236 236/2/238 241/3/237
f 230/1/225 212/2/234 240/3/223
f 230/1/225 231/2/227 212/3/234
f 235/1/229 232/2/228 239/3/235
f 235/1/229 239/2/235 241/3/237
f 237/1/232 238/2/236 234/3/230
f 233/1/231 242/2/226 215/3/233
f 233/1/231 229/2/224 242/3/226
f 237/1/232 236/2/238 238/3/236
f 243/1/239 244/2/240 245/3/241
f 243/1/239 246/2/242 244/3/240
f 247/1/243 243/2/239 245/3/241
f 244/1/240 247/2/243 245/3/241
f 244/1/240 248/2/244 247/3/243
f 246/1/242 249/2/245 244/3/240
f 246/1/242 251/2/246 249/3/245
f 247/1/243 246/2/242 243/3/239
f 247/1/243 248/2/244 246/3/242
f 244/1/240 250/2/247 248/3/244
f 244/1/240 249/2/245 250/3/247
f 250/1/247 246/2/242 248/3/244
f 250/1/247 251/2/246 246/3/242
f 250/1/247 249/2/245 251/3/246
f 252/1/248 258/2/249 253/3/250
f 252/1/248 254/2/251 258/3/249
f 256/1/252 252/2/248 253/3/250
f 258/1/249 256/2/252 253/3/250
f 258/1/249 257/2/253 256/3/252
f 254/1/251 255/2/254 258/3/249
f 254/1/251 260/2/255 255/3/254
f 256/1/252 254/2/251 252/3/248
f 256/1/252 257/2/253 254/3/251
f 258/1/249 259/2/256 257/3/253
f 258/1/249 255/2/254 259/3/256
f 259/1/256 254/2/251 257/3/253
f 259/1/256 260/2/255 254/3/251
f 255/1/254 262/2/257 259/3/256
f 255/1/254 263/2/258 262/3/257
f 260/1/255 263/2/258 255/3/254
f 260/1/255 261/2/259 263/3/258
f 259/1/256 261/2/259 260/3/255
f 259/1/256 262/2/257 261/3/259
f 262/1/257 264/2/260 261/3/259
f 262/1/257 265/2/261 264/3/260
f 263/1/258 265/2/261 262/3/257
f 263/1/258 266/2/262 265/3/261
f 261/1/259 266/2/262 263/3/258
f 261/1/259 264/2/260 266/3/262
f 264/1/260 267/2/263 266/3/262
f 264/1/260 268/2/264 267/3/263
f 265/1/261 268/2/264 264/3/260
f 265/1/261 269/2/265 268/3/264
f 266/1/262 269/2/265 265/3/261
f 266/1/262 267/2/263 269/3/265
f 268/1/264 269/2/265 267/3/263
f 274/1/266 272/2/267 270/3/268
f 274/1/266 273/2/269 272/3/267
f 271/1/270 274/2/266 270/3/268
f 272/1/267 271/2/270 270/3/268
f 272/1/267 276/2/271 271/3/270
f 273/1/269 277/2/272 272/3/267
f 273/1/269 278/2/273 277/3/272
f 271/1/270 273/2/269 274/3/266
f 271/1/270 276/2/271 273/3/269
f 272/1/267 275/2/274 276/3/271
f 272/1/267 277/2/272 275/3/274
f 275/1/274 273/2/269 276/3/271
f 275/1/274 278/2/273 273/3/269
f 277/1/272 280/2/275 275/3/274
f 277/1/272 279/2/276 280/3/275
f 278/1/273 279/2/276 277/3/272
f 278/1/273 281/2/277 279/3/276
f 275/1/274 281/2/277 278/3/273
f 275/1/274 280/2/275 281/3/277
f 280/1/275 284/2/278 281/3/277
f 280/1/275 282/2/279 284/3/278
f 279/1/276 282/2/279 280/3/275
f 279/1/276 283/2/280 282/3/279
f 281/1/277 283/2/280 279/3/276
f 281/1/277 284/2/278 283/3/280
f 284/1/278 287/2/281 283/3/280
f 284/1/278 286/2/282 287/3/281
f 282/1/279 286/2/282 284/3/278
f 282/1/279 285/2/283 286/3/282
f 283/1/280 285/2/283 282/3/279
f 283/1/280 287/2/281 285/3/283
f 286/1/282 285/2/283 287/3/281
f 289/1/284 290/2/285 288/3/286
f 289/1/284 291/2/287 290/3/285
f 288/1/286 293/2/288 289/3/284
f 288/1/286 295/2/289 293/3/288
f 290/1/285 295/2/289 288/3/286
f 290/1/285 296/2/290 295/3/289
f 291/1/287 292/2/291 290/3/285
f 291/1/287 299/2/292 292/3/291
f 293/1/288 291/2/287 289/3/284
f 293/1/288 298/2/293 291/3/287
f 290/1/285 294/2/294 296/3/290
f 290/1/285 292/2/291 294/3/294
f 295/1/289 298/2/293 293/3/288
f 295/1/289 296/2/290 298/3/293
f 294/1/294 298/2/293 296/3/290
f 294/1/294 297/2/295 298/3/293
f 294/1/294 299/2/292 297/3/295
f 294/1/294 292/2/291 299/3/292
f 298/1/293 299/2/292 291/3/287
f 298/1/293 297/2/295 299/3/292
f 371/10/296 302/11/297 300/12/298
f 371/10/296 303/11/299 302/12/297
f 300/10/298 301/11/300 371/12/296
f 300/10/298 309/11/301 301/12/300
f 302/10/297 309/11/301 300/12/298
f 302/10/297 307/11/302 309/12/301
f 303/10/299 304/11/303 302/12/297
f 303/10/299 312/11/304 304/12/303
f 305/10/305 303/11/299 371/12/296
f 305/10/305 314/11/306 303/12/299
f 302/10/297 306/11/307 307/12/302
f 302/10/297 304/11/303 306/12/307
f 372/10/308 314/11/306 305/12/305
f 372/10/308 323/11/309 314/12/306
f 307/10/302 308/11/310 309/12/301
f 307/10/302 319/11/311 308/12/310
f 306/10/307 319/11/311 307/12/302
f 306/10/307 310/11/312 319/12/311
f 304/10/303 311/11/313 306/12/307
f 304/10/303 313/11/303 311/12/313
f 312/10/304 313/11/303 304/12/303
f 312/10/304 322/11/304 313/12/303
f 314/10/306 312/11/304 303/12/299
f 314/10/306 321/11/314 312/12/304
f 301/10/300 323/11/309 372/12/308
f 301/10/300 324/11/315 323/12/309
f 306/10/307 315/11/312 310/12/312
f 306/10/307 311/11/313 315/12/312
f 323/10/309 321/11/314 314/12/306
f 323/10/309 316/11/316 321/12/314
f 317/10/317 324/11/315 301/12/300
f 317/10/317 318/11/318 324/12/315
f 308/10/310 318/11/318 317/12/317
f 308/10/310 319/11/311 318/12/318
f 310/10/312 318/11/318 319/12/311
f 310/10/312 325/11/319 318/12/318
f 315/10/312 325/11/319 310/12/312
f 315/10/312 327/11/319 325/12/319
f 311/13/313 329/14/320 315/15/312
f 311/13/313 320/14/321 329/15/320
f 313/13/303 320/14/321 311/15/313
f 313/13/303 330/14/322 320/15/321
f 322/13/304 330/14/322 313/15/303
f 322/13/304 340/14/323 330/15/322
f 321/10/314 322/11/304 312/12/304
f 321/10/314 332/11/314 322/12/304
f 324/10/315 316/11/316 323/12/309
f 324/10/315 333/11/324 316/12/316
f 315/13/312 328/14/325 327/15/319
f 315/13/312 329/14/320 328/15/325
f 316/10/316 332/11/314 321/12/314
f 316/10/316 335/11/316 332/12/314
f 318/10/318 333/11/324 324/12/315
f 318/10/318 325/11/319 333/12/324
f 327/10/319 333/11/324 325/12/319
f 327/10/319 326/11/326 333/12/324
f 328/13/325 326/14/326 327/15/319
f 328/13/325 334/14/327 326/15/326
f 329/10/320 346/11/328 328/12/325
f 329/10/320 344/11/329 346/12/328
f 320/10/321 344/11/329 329/12/320
f 320/10/321 338/11/330 344/12/329
f 330/10/322 338/11/330 320/12/321
f 330/10/322 331/11/331 338/12/330
f 340/10/323 331/11/331 330/12/322
f 340/10/323 339/11/332 331/12/331
f 332/13/314 340/14/323 322/15/304
f 332/13/314 342/14/333 340/15/323
f 333/10/324 335/11/316 316/12/316
f 333/10/324 326/11/326 335/12/316
f 328/10/325 336/11/334 334/12/327
f 328/10/325 346/11/328 336/12/334
f 335/13/316 342/14/333 332/15/314
f 335/13/316 337/14/335 342/15/333
f 334/13/327 335/14/316 326/15/326
f 334/13/327 337/14/335 335/15/316
f 336/16/334 337/17/335 334/18/327
f 336/10/334 356/11/336 337/12/335
f 344/10/329 338/11/330 347/12/337
f 338/10/330 331/11/331 347/12/337
f 347/10/337 331/11/331 339/12/332
f 342/10/333 339/11/332 340/12/323
f 342/10/333 341/11/338 339/12/332
f 345/10/339 344/11/329 347/12/337
f 347/10/337 339/11/332 355/12/340
f 337/10/335 341/11/338 342/12/333
f 337/10/335 356/11/336 341/12/338
f 343/10/341 344/11/329 345/12/339
f 343/10/341 346/11/328 344/12/329
f 345/10/339 347/11/337 349/12/342
f 349/10/342 347/11/337 355/12/340
f 341/10/338 355/11/340 339/12/332
f 341/10/338 364/11/343 355/12/340
f 348/10/344 343/11/341 345/12/339
f 348/10/344 353/11/345 343/12/341
f 345/10/339 349/11/342 354/12/346
f 348/10/344 345/11/339 354/12/346
f 349/10/342 350/11/347 354/12/346
f 364/10/343 341/11/338 351/12/348
f 354/19/346 352/20/349 348/21/344
f 354/19/346 366/20/350 352/21/349
f 353/10/345 363/11/351 343/12/341
f 353/22/345 352/23/349 358/24/352
f 353/22/345 348/23/344 352/24/349
f 354/10/346 350/11/347 355/12/340
f 341/10/338 356/11/336 351/12/348
f 364/10/343 351/11/348 357/12/353
f 363/10/351 362/11/354 343/12/341
f 358/19/352 363/20/351 353/21/345
f 358/19/352 368/20/355 363/21/351
f 360/10/356 354/11/346 355/12/340
f 356/10/336 336/11/334 351/12/348
f 357/10/353 351/11/348 343/12/341
f 358/22/352 352/23/349 359/24/357
f 354/19/346 361/20/358 366/21/350
f 354/19/346 360/20/356 361/21/358
f 357/10/353 362/11/354 363/12/351
f 360/10/356 364/11/343 367/12/359
f 360/10/356 355/11/340 364/12/343
f 351/10/348 336/11/334 346/12/328
f 351/10/348 346/11/328 343/12/341
f 352/19/349 366/20/350 359/21/357
f 358/19/352 359/20/357 368/21/355
f 364/10/343 357/11/353 363/12/351
f 360/22/356 369/23/360 361/24/358
f 360/22/356 367/23/359 369/24/360
f 359/19/357 366/20/350 365/21/361
f 361/19/358 370/20/362 366/21/350
f 367/10/359 364/11/343 363/12/351
f 366/19/350 370/20/362 365/21/361
f 368/19/355 359/20/357 365/21/361
f 369/19/360 363/20/351 368/21/355
f 369/19/360 367/20/359 363/21/351
f 361/22/358 369/23/360 370/24/362
f 370/19/362 368/20/355 365/21/361
f 369/19/360 368/20/355 370/21/362
f 371/10/296 372/11/308 305/12/305
f 371/10/296 301/11/300 372/12/308
f 301/10/300 308/11/310 317/12/317
f 301/10/300 309/11/301 308/12/310
f 373/1/363 387/2/364 381/3/365
f 373/1/363 384/2/366 387/3/364
f 374/1/367 375/2/368 383/3/369
f 374/1/367 381/2/365 375/3/368
f 376/1/370 381/2/365 387/3/364
f 376/1/370 375/2/368 381/3/365
f 386/1/371 376/2/370 387/3/364
f 386/1/371 377/2/372 376/3/370
f 374/1/367 385/2/373 382/3/374
f 374/1/367 386/2/371 385/3/373
f 383/1/369 386/2/371 374/3/367
f 383/1/369 377/2/372 386/3/371
f 376/1/370 379/2/375 375/3/368
f 376/1/370 378/2/376 379/3/375
f 377/1/372 380/2/377 388/3/378
f 377/1/372 383/2/369 380/3/377
f 378/1/376 380/2/377 379/3/375
f 378/1/376 388/2/378 380/3/377
f 381/1/365 382/2/374 373/3/363
f 381/1/365 374/2/367 382/3/374
f 383/1/369 375/2/368 379/3/375
f 383/1/369 379/2/375 380/3/377
f 377/1/372 378/2/376 376/3/370
f 386/1/371 384/2/366 385/3/373
f 386/1/371 387/2/364 384/3/366
f 377/1/372 388/2/378 378/3/376
f 390/1/379 389/2/380 391/3/381
f 390/1/379 393/2/382 389/3/380
f 392/1/383 390/2/379 391/3/381
f 389/1/380 392/2/383 391/3/381
f 389/1/380 394/2/384 392/3/383
f 393/1/382 395/2/385 389/3/380
f 393/1/382 397/2/386 395/3/385
f 392/1/383 393/2/382 390/3/379
f 392/1/383 394/2/384 393/3/382
f 389/1/380 396/2/387 394/3/384
f 389/1/380 395/2/385 396/3/387
f 396/1/387 393/2/382 394/3/384
f 396/1/387 397/2/386 393/3/382
f 396/1/387 395/2/385 397/3/386
f 403/1/388 399/2/389 398/3/390
f 403/1/388 401/2/391 399/3/389
f 402/1/392 403/2/388 398/3/390
f 399/1/389 402/2/392 398/3/390
f 399/1/389 400/2/393 402/3/392
f 401/1/391 407/2/394 399/3/389
f 401/1/391 408/2/395 407/3/394
f 402/1/392 401/2/391 403/3/388
f 402/1/392 400/2/393 401/3/391
f 399/1/389 404/2/396 400/3/393
f 399/1/389 407/2/394 404/3/396
f 404/1/396 401/2/391 400/3/393
f 404/1/396 408/2/395 401/3/391
f 407/1/394 405/2/397 404/3/396
f 407/1/394 406/2/398 405/3/397
f 408/1/395 406/2/398 407/3/394
f 408/1/395 409/2/399 406/3/398
f 404/1/396 409/2/399 408/3/395
f 404/1/396 405/2/397 409/3/399
f 405/1/397 406/2/398 409/3/399
f 410/1/400 414/2/401 412/3/402
f 410/1/400 415/2/403 414/3/401
f 411/1/404 410/2/400 412/3/402
f 414/1/401 411/2/404 412/3/402
f 414/1/401 413/2/405 411/3/404
f 415/1/403 416/2/406 414/3/401
f 415/1/403 420/2/407 416/3/406
f 411/1/404 415/2/403 410/3/400
f 411/1/404 413/2/405 415/3/403
f 414/1/401 421/2/408 413/3/405
f 414/1/401 416/2/406 421/3/408
f 421/1/408 415/2/403 413/3/405
f 421/1/408 420/2/407 415/3/403
f 416/1/406 417/2/409 421/3/408
f 416/1/406 418/2/410 417/3/409
f 420/1/407 418/2/410 416/3/406
f 420/1/407 419/2/411 418/3/410
f 421/1/408 419/2/411 420/3/407
f 421/1/408 417/2/409 419/3/411
f 425/1/412 423/2/413 424/3/414
f 425/1/412 427/2/415 423/3/413
f 422/1/416 425/2/412 424/3/414
f 423/1/413 422/2/416 424/3/414
f 423/1/413 426/2/417 422/3/416
f 427/1/415 429/2/418 423/3/413
f 427/1/415 433/2/419 429/3/418
f 422/1/416 427/2/415 425/3/412
f 422/1/416 426/2/417 427/3/415
f 423/1/413 428/2/420 426/3/417
f 423/1/413 429/2/418 428/3/420
f 428/1/420 427/2/415 426/3/417
f 428/1/420 433/2/419 427/3/415
f 429/1/418 430/2/421 428/3/420
f 429/1/418 431/2/422 430/3/421
f 433/1/419 431/2/422 429/3/418
f 433/1/419 432/2/423 431/3/422
f 428/1/420 432/2/423 433/3/419
f 428/1/420 430/2/421 432/3/423
f 434/1/424 440/2/425 436/3/426
f 434/1/424 439/2/427 440/3/425
f 435/1/428 434/2/424 436/3/426
f 440/1/425 435/2/428 436/3/426
f 440/1/425 437/2/429 435/3/428
f 439/1/427 438/2/430 440/3/425
f 439/1/427 443/2/431 438/3/430
f 435/1/428 439/2/427 434/3/424
f 435/1/428 437/2/429 439/3/427
f 440/1/425 441/2/432 437/3/429
f 440/1/425 438/2/430 441/3/432
f 441/1/432 439/2/427 437/3/429
f 441/1/432 443/2/431 439/3/427
f 438/1/430 442/2/433 441/3/432
f 438/1/430 444/2/434 442/3/433
f 443/1/431 444/2/434 438/3/430
f 443/1/431 445/2/435 444/3/434
f 441/1/432 445/2/435 443/3/431
f 441/1/432 442/2/433 445/3/435
f 446/1/436 448/2/437 447/3/438
f 446/1/436 450/2/439 448/3/437
f 449/1/440 446/2/436 447/3/438
f 448/1/437 449/2/440 447/3/438
f 448/1/437 451/2/441 449/3/440
f 450/1/439 453/2/442 448/3/437
f 450/1/439 455/2/443 453/3/442
f 449/1/440 450/2/439 446/3/436
f 449/1/440 451/2/441 450/3/439
f 448/1/437 456/2/444 451/3/441
f 448/1/437 453/2/442 456/3/444
f 456/1/444 450/2/439 451/3/441
f 456/1/444 455/2/443 450/3/439
f 453/1/442 452/2/445 456/3/444
f 453/1/442 454/2/446 452/3/445
f 455/1/443 454/2/446 453/3/442
f 455/1/443 457/2/447 454/3/446
f 456/1/444 457/2/447 455/3/443
f 456/1/444 452/2/445 457/3/447
f 458/1/448 461/2/449 459/3/450
f 458/1/448 460/2/451 461/3/449
f 462/1/452 458/2/448 459/3/450
f 461/1/449 462/2/452 459/3/450
f 461/1/449 464/2/453 462/3/452
f 460/1/451 463/2/454 461/3/449
f 460/1/451 466/2/455 463/3/454
f 462/1/452 460/2/451 458/3/448
f 462/1/452 464/2/453 460/3/451
f 461/1/449 468/2/456 464/3/453
f 461/1/449 463/2/454 468/3/456
f 468/1/456 460/2/451 464/3/453
f 468/1/456 466/2/455 460/3/451
f 463/1/454 465/2/457 468/3/456
f 463/1/454 467/2/458 465/3/457
f 466/1/455 467/2/458 463/3/454
f 466/1/455 469/2/459 467/3/458
f 468/1/456 469/2/459 466/3/455
f 468/1/456 465/2/457 469/3/459
f 474/1/460 471/2/461 470/3/462
f 474/1/460 473/2/463 471/3/461
f 472/1/464 474/2/460 470/3/462
f 471/1/461 472/2/464 470/3/462
f 471/1/461 475/2/465 472/3/464
f 473/1/463 477/2/466 471/3/461
f 473/1/463 480/2/467 477/3/466
f 472/1/464 473/2/463 474/3/460
f 472/1/464 475/2/465 473/3/463
f 471/1/461 476/2/468 475/3/465
f 471/1/461 477/2/466 476/3/468
f 476/1/468 473/2/463 475/3/465
f 476/1/468 480/2/467 473/3/463
f 477/1/466 479/2/469 476/3/468
f 477/1/466 478/2/470 479/3/469
f 480/1/467 478/2/470 477/3/466
f 480/1/467 481/2/471 478/3/470
f 476/1/468 481/2/471 480/3/467
f 476/1/468 479/2/469 481/3/471
f 484/1/448 485/2/449 483/3/450
f 484/1/448 487/2/472 485/3/449
f 482/1/452 484/2/448 483/3/450
f 485/1/449 482/2/452 483/3/450
f 485/1/449 486/2/453 482/3/452
f 487/1/472 488/2/473 485/3/449
f 487/1/472 491/2/455 488/3/473
f 482/1/452 487/2/472 484/3/448
f 482/1/452 486/2/453 487/3/472
f 485/1/449 489/2/456 486/3/453
f 485/1/449 488/2/473 489/3/456
f 489/1/456 487/2/472 486/3/453
f 489/1/456 491/2/455 487/3/472
f 488/1/473 490/2/474 489/3/456
f 488/1/473 492/2/475 490/3/474
f 491/1/455 492/2/475 488/3/473
f 491/1/455 493/2/476 492/3/475
f 489/1/456 493/2/476 491/3/455
f 489/1/456 490/2/474 493/3/476
f 495/1/460 498/2/477 496/3/462
f 495/1/460 494/2/463 498/3/477
f 499/1/464 495/2/460 496/3/462
f 498/1/477 499/2/464 496/3/462
f 498/1/477 497/2/465 499/3/464
f 494/1/463 502/2/478 498/3/477
f 494/1/463 504/2/467 502/3/478
f 499/1/464 494/2/463 495/3/460
f 499/1/464 497/2/465 494/3/463
f 498/1/477 503/2/479 497/3/465
f 498/1/477 502/2/478 503/3/479
f 503/1/479 494/2/463 497/3/465
f 503/1/479 504/2/467 494/3/463
f 502/1/478 500/2/480 503/3/479
f 502/1/478 501/2/470 500/3/480
f 504/1/467 501/2/470 502/3/478
f 504/1/467 505/2/481 501/3/470
f 503/1/479 505/2/481 504/3/467
f 503/1/479 500/2/480 505/3/481
f 506/1/482 507/2/483 508/3/484
f 506/1/482 510/2/485 507/3/483
f 511/1/486 506/2/482 508/3/484
f 507/1/483 511/2/486 508/3/484
f 507/1/483 512/2/487 511/3/486
f 510/1/485 509/2/488 507/3/483
f 510/1/485 514/2/489 509/3/488
f 511/1/486 510/2/485 506/3/482
f 511/1/486 512/2/487 510/3/485
f 507/1/483 513/2/490 512/3/487
f 507/1/483 509/2/488 513/3/490
f 513/1/490 510/2/485 512/3/487
f 513/1/490 514/2/489 510/3/485
f 509/1/488 515/2/491 513/3/490
f 509/1/488 517/2/492 515/3/491
f 514/1/489 517/2/492 509/3/488
f 514/1/489 516/2/459 517/3/492
f 513/1/490 516/2/459 514/3/489
f 513/1/490 515/2/491 516/3/459
f 518/1/493 521/2/494 519/3/495
f 518/1/493 524/2/496 521/3/494
f 520/1/497 518/2/493 519/3/495
f 521/1/494 520/2/497 519/3/495
f 521/1/494 522/2/498 520/3/497
f 524/1/496 525/2/499 521/3/494
f 524/1/496 523/2/500 525/3/499
f 520/1/497 524/2/496 518/3/493
f 520/1/497 522/2/498 524/3/496
f 521/1/494 528/2/501 522/3/498
f 521/1/494 525/2/499 528/3/501
f 528/1/501 524/2/496 522/3/498
f 528/1/501 523/2/500 524/3/496
f 525/1/499 526/2/502 528/3/501
f 525/1/499 527/2/503 526/3/502
f 523/1/500 527/2/503 525/3/499
f 523/1/500 529/2/504 527/3/503
f 528/1/501 529/2/504 523/3/500
f 528/1/501 526/2/502 529/3/504
f 536/1/505 531/2/506 530/3/507
f 531/1/506 533/2/508 530/3/507
f 535/1/509 531/2/506 536/3/505
f 536/1/505 530/2/507 537/3/510
f 532/1/511 530/2/507 533/3/508
f 534/1/512 533/2/508 531/3/506
f 534/1/512 531/2/506 535/3/509
f 535/1/509 536/2/505 540/3/513
f 536/1/505 537/2/510 541/3/514
f 538/1/515 537/2/510 530/3/507
f 538/1/515 542/2/516 537/3/510
f 538/1/515 530/2/507 532/3/511
f 532/1/511 533/2/508 534/3/512
f 535/1/509 538/2/515 534/3/512
f 540/1/513 536/2/505 541/3/514
f 535/1/509 540/2/513 538/3/515
f 537/1/510 539/2/517 541/3/514
f 534/1/512 538/2/515 532/3/511
f 540/1/513 541/2/514 539/3/517
f 540/1/513 542/2/516 538/3/515
f 537/1/510 543/2/518 539/3/517
f 542/1/516 543/2/518 537/3/510
f 542/1/516 547/2/519 543/3/518
f 545/1/520 540/2/513 539/3/517
f 540/1/513 547/2/519 542/3/516
f 543/1/518 544/2/521 539/3/517
f 540/1/513 545/2/520 547/3/519
f 545/1/520 539/2/517 544/3/521
f 543/1/518 549/2/522 544/3/521
f 547/1/519 546/2/523 543/3/518
f 548/1/524 547/2/519 545/3/520
f 548/1/524 545/2/520 544/3/521
f 548/1/524 544/2/521 549/3/522
f 546/1/523 549/2/522 543/3/518
f 546/1/523 547/2/519 548/3/524
f 546/1/523 548/2/524 549/3/522
f 550/1/525 553/2/526 552/3/527
f 550/1/525 555/2/528 553/3/526
f 551/1/529 550/2/525 552/3/527
f 553/1/526 551/2/529 552/3/527
f 553/1/526 554/2/530 551/3/529
f 555/1/528 558/2/531 553/3/526
f 555/1/528 556/2/532 558/3/531
f 551/1/529 555/2/528 550/3/525
f 551/1/529 554/2/530 555/3/528
f 553/1/526 557/2/533 554/3/530
f 553/1/526 558/2/531 557/3/533
f 557/1/533 555/2/528 554/3/530
f 557/1/533 556/2/532 555/3/528
f 556/1/532 561/2/534 558/3/531
f 561/1/534 556/2/532 557/3/533
f 561/1/534 562/2/535 558/3/531
f 559/1/536 561/2/534 557/3/533
f 558/1/531 562/2/535 557/3/533
f 562/1/535 561/2/534 563/3/537
f 561/1/534 559/2/536 560/3/538
f 562/1/535 559/2/536 557/3/533
f 561/1/534 565/2/539 563/3/537
f 562/1/535 563/2/537 560/3/538
f 565/1/539 561/2/534 560/3/538
f 559/1/536 562/2/535 560/3/538
f 563/1/537 568/2/540 564/3/541
f 563/1/537 565/2/539 568/3/540
f 560/1/538 564/2/541 566/3/542
f 560/1/538 563/2/537 564/3/541
f 565/1/539 566/2/542 568/3/540
f 565/1/539 560/2/538 566/3/542
f 564/1/541 567/2/543 570/3/544
f 564/1/541 568/2/540 567/3/543
f 566/1/542 570/2/544 569/3/545
f 566/1/542 564/2/541 570/3/544
f 568/1/540 569/2/545 567/3/543
f 568/1/540 566/2/542 569/3/545
f 569/1/545 570/2/544 567/3/543
o Sub-Model_1
v 0.246000 1.154001 0.358000
v 0.254000 1.216001 0.575000
v 0.251000 1.215001 0.593000
v 0.205000 1.012001 0.658000
v 0.256000 1.229001 0.563000
v 0.234000 1.023001 0.480000
v 0.176000 1.134001 0.787000
v 0.181000 1.010001 0.654000
v 0.249000 1.227001 0.606000
v 0.205000 1.457001 0.496000
v 0.254000 1.247001 0.564000
v 0.234000 1.334001 0.367000
v 0.223000 1.153001 0.354000
v 0.164000 1.314001 0.796000
v 0.247000 1.245001 0.607000
v 0.249000 1.258001 0.594000
v 0.181000 1.455001 0.492000
v 0.251000 1.259001 0.577000
v 0.176000 1.446001 0.674000
v 0.153000 1.444001 0.670000
v 0.153000 1.133001 0.783000
v 0.210000 1.021001 0.476000
v 0.140000 1.313001 0.792000
v 0.210000 1.333001 0.363000
vn 0.9996 0.0098 0.0271
vn 0.9660 0.0884 0.2432
vn 0.9924 -0.0403 0.1167
vn 0.9923 0.1059 0.0637
vn 0.7305 -0.6501 -0.2092
vn 0.7724 -0.2173 -0.5969
vn 0.6406 -0.6750 0.3660
vn 0.9744 -0.0776 0.2112
vn 0.5432 -0.2869 0.7890
vn 0.9562 -0.0037 0.2927
vn 0.7305 0.3635 -0.5781
vn -0.6382 -0.6577 -0.4002
vn -0.3181 -0.3238 -0.8910
vn -0.4708 -0.8538 0.2224
vn -0.5750 -0.4036 0.7117
vn 0.5085 0.2945 0.8091
vn 0.6405 0.7524 -0.1536
vn 0.9744 0.1951 0.1118
vn -0.6381 0.2465 -0.7294
vn -0.9304 0.1252 0.3445
vn 0.5431 0.7270 0.4201
vn 0.9561 0.1911 0.2221
vn -0.4710 0.7977 -0.3765
vn -0.5750 0.7666 0.2859
vt 0.878902 0.378902
vt 0.855473 0.378902
vt 0.875004 0.371098
vt 0.878902 0.378910
vt 0.875004 0.386715
vt 0.855473 0.378910
vt 0.878910 0.378902
vt 0.953129 0.292973
vt 0.992184 0.378902
vt 0.875004 0.371090
vt 0.953121 0.292973
vt 0.871098 0.257816
vt 0.953121 0.292965
vt 0.874996 0.371090
vt 0.867191 0.367184
vt 0.789066 0.292965
vt 0.871090 0.257816
vt 0.867184 0.367184
vt 0.859379 0.371090
vt 0.789066 0.292973
vt 0.992184 0.378910
vt 0.878910 0.378910
vt 0.953129 0.464840
vt 0.820309 0.070316
vt 0.777348 0.117184
vt 0.773441 0.117184
vt 0.882809 0.066410
vt 0.820316 0.070309
vt 0.929684 0.109371
vt 0.882816 0.066410
vt 0.859371 0.371090
vt 0.753910 0.378902
vt 0.859371 0.371098
vt 0.871098 0.499996
vt 0.875004 0.386723
vt 0.953121 0.464840
vt 0.867191 0.390621
vt 0.874996 0.386723
vt 0.773441 0.117191
vt 0.781246 0.183590
vt 0.777348 0.117191
vt 0.777348 0.183590
vt 0.929691 0.109379
vt 0.933590 0.175777
vt 0.929691 0.175777
vt 0.855465 0.378910
vt 0.789066 0.464840
vt 0.753910 0.378910
vt 0.859371 0.386715
vt 0.929684 0.175777
vt 0.820316 0.070316
vt 0.777348 0.183598
vt 0.824215 0.226559
vt 0.781254 0.183598
vt 0.859379 0.386723
vt 0.871090 0.499996
vt 0.929684 0.175785
vt 0.890629 0.222652
vt 0.886723 0.222652
vt 0.929691 0.175785
vt 0.933590 0.175785
vt 0.824223 0.226559
vt 0.890621 0.222660
vt 0.886723 0.222660
vt 0.867191 0.367191
vt 0.874996 0.371098
vt 0.859379 0.371098
vt 0.867184 0.390621
vt 0.859379 0.386715
vt 0.874996 0.386715
vt 0.886715 0.222652
s 1
usemtl Material_1
f 575/25/546 585/26/547 572/27/548
f 575/28/546 581/29/549 585/30/547
f 575/31/546 576/32/550 571/33/551
f 575/31/546 572/34/548 576/35/550
f 572/34/548 574/36/552 576/37/550
f 572/38/548 573/39/553 574/36/552
f 573/39/553 577/40/554 574/41/552
f 573/42/553 579/43/555 577/44/554
f 571/45/551 581/29/549 575/46/546
f 571/45/551 582/47/556 581/29/549
f 592/48/557 571/49/551 576/48/550
f 592/48/557 583/50/558 571/49/551
f 578/51/559 576/52/550 574/51/552
f 578/51/559 592/52/557 576/52/550
f 591/53/560 574/54/552 577/53/554
f 591/53/560 578/54/559 574/54/552
f 579/55/555 584/56/561 577/44/554
f 579/57/555 585/26/547 584/56/561
f 580/58/562 581/59/549 582/60/556
f 580/58/562 588/61/563 581/62/549
f 583/63/558 582/64/556 571/65/551
f 583/63/558 594/66/564 582/64/556
f 591/67/560 584/68/561 593/69/565
f 591/67/560 577/67/554 584/68/561
f 585/70/547 589/71/566 584/72/561
f 585/30/547 586/73/567 589/71/566
f 583/63/558 593/74/565 594/66/564
f 583/50/558 592/75/557 593/74/565
f 594/76/564 580/77/562 582/78/556
f 594/76/564 587/77/568 580/77/562
f 586/79/567 580/80/562 589/71/566
f 586/79/567 588/61/563 580/80/562
f 593/81/565 589/82/566 590/83/569
f 593/84/565 584/85/561 589/82/566
f 587/86/568 589/87/566 580/86/562
f 587/86/568 590/88/569 589/87/566
f 572/38/548 579/43/555 573/89/553
f 572/90/548 585/26/547 579/91/555
f 585/30/547 588/92/563 586/93/567
f 585/30/547 581/94/549 588/61/563
f 591/53/560 592/52/557 578/54/559
f 591/53/560 593/74/565 592/75/557
f 594/76/564 590/95/569 587/86/568
f 594/66/564 593/81/565 590/83/569
